<svg width="60" height="60" viewBox="0 0 60 60" fill="none" xmlns="http://www.w3.org/2000/svg">
<rect x="1" y="1" width="58" height="58" rx="9" fill="#FFDECC"/>
<rect x="1" y="1" width="58" height="58" rx="9" stroke="#262626" stroke-width="2"/>
<g clip-path="url(#clip0_121_1859)">
<path d="M25.5502 39.75C34.6045 39.75 39.5583 32.2467 39.5583 25.7419C39.5583 25.5309 39.5536 25.3153 39.5442 25.1044C40.5079 24.4075 41.3395 23.5443 42 22.5553C41.1025 22.9546 40.1496 23.2154 39.1739 23.3287C40.2013 22.7129 40.9705 21.7455 41.3391 20.6058C40.3726 21.1786 39.3156 21.5826 38.2134 21.8006C37.4708 21.0116 36.489 20.4891 35.4197 20.3141C34.3504 20.139 33.2532 20.3211 32.2977 20.8321C31.3423 21.3431 30.5818 22.1547 30.1338 23.1413C29.6859 24.1279 29.5754 25.2346 29.8195 26.2903C27.8625 26.1921 25.9479 25.6837 24.2 24.7981C22.452 23.9125 20.9097 22.6694 19.673 21.1495C19.0444 22.2332 18.8521 23.5156 19.135 24.7361C19.418 25.9565 20.1551 27.0234 21.1964 27.72C20.4146 27.6952 19.65 27.4847 18.9656 27.1059V27.1669C18.9649 28.3041 19.3581 29.4066 20.0783 30.2868C20.7985 31.167 21.8013 31.7706 22.9162 31.995C22.1921 32.1931 21.432 32.222 20.6948 32.0794C21.0095 33.0574 21.6216 33.9129 22.4458 34.5263C23.27 35.1398 24.2651 35.4806 25.2923 35.5012C23.5484 36.8711 21.3942 37.6141 19.1766 37.6106C18.7833 37.61 18.3904 37.5859 18 37.5384C20.2529 38.9837 22.8735 39.7514 25.5502 39.75Z" fill="#262626"/>
</g>
<defs>
<clipPath id="clip0_121_1859">
<rect width="24" height="24" fill="white" transform="translate(18 18)"/>
</clipPath>
</defs>
</svg>
