<svg width="140" height="24" viewBox="0 0 140 24" fill="none" xmlns="http://www.w3.org/2000/svg">
<path d="M10.2749 2.9429C11.0476 1.62493 12.9529 1.62493 13.7256 2.9429L15.4514 5.88664C15.7334 6.36761 16.2034 6.70904 16.7479 6.8286L20.0809 7.5603C21.5731 7.8879 22.1619 9.69996 21.1472 10.8421L18.8809 13.3931C18.5106 13.8099 18.3311 14.3624 18.3857 14.9173L18.7197 18.3132C18.8693 19.8337 17.3278 20.9536 15.928 20.3415L12.8015 18.9744C12.2907 18.751 11.7098 18.751 11.199 18.9744L8.07244 20.3415C6.67264 20.9536 5.13122 19.8337 5.28078 18.3132L5.61483 14.9173C5.66941 14.3624 5.48991 13.8099 5.11962 13.3931L2.85327 10.8421C1.83858 9.69995 2.42736 7.8879 3.91959 7.5603L7.25257 6.8286C7.79713 6.70904 8.26708 6.36761 8.54906 5.88664L10.2749 2.9429Z" fill="#FF8D4D"/>
<path d="M39.2749 2.9429C40.0476 1.62493 41.9529 1.62493 42.7256 2.9429L44.4514 5.88664C44.7334 6.36761 45.2034 6.70904 45.7479 6.8286L49.0809 7.5603C50.5731 7.8879 51.1619 9.69996 50.1472 10.8421L47.8809 13.3931C47.5106 13.8099 47.3311 14.3624 47.3857 14.9173L47.7197 18.3132C47.8693 19.8337 46.3278 20.9536 44.928 20.3415L41.8015 18.9744C41.2907 18.751 40.7098 18.751 40.199 18.9744L37.0724 20.3415C35.6726 20.9536 34.1312 19.8337 34.2808 18.3132L34.6148 14.9173C34.6694 14.3624 34.4899 13.8099 34.1196 13.3931L31.8533 10.8421C30.8386 9.69995 31.4274 7.8879 32.9196 7.5603L36.2526 6.8286C36.7971 6.70904 37.2671 6.36761 37.5491 5.88664L39.2749 2.9429Z" fill="#FF8D4D"/>
<path d="M68.2749 2.9429C69.0476 1.62493 70.9529 1.62493 71.7256 2.9429L73.4514 5.88664C73.7334 6.36761 74.2034 6.70904 74.7479 6.8286L78.0809 7.5603C79.5731 7.8879 80.1619 9.69996 79.1472 10.8421L76.8809 13.3931C76.5106 13.8099 76.3311 14.3624 76.3857 14.9173L76.7197 18.3132C76.8693 19.8337 75.3278 20.9536 73.928 20.3415L70.8015 18.9744C70.2907 18.751 69.7098 18.751 69.199 18.9744L66.0724 20.3415C64.6726 20.9536 63.1312 19.8337 63.2808 18.3132L63.6148 14.9173C63.6694 14.3624 63.4899 13.8099 63.1196 13.3931L60.8533 10.8421C59.8386 9.69995 60.4274 7.8879 61.9196 7.5603L65.2526 6.8286C65.7971 6.70904 66.2671 6.36761 66.5491 5.88664L68.2749 2.9429Z" fill="#FF8D4D"/>
<path d="M97.2749 2.9429C98.0476 1.62493 99.9529 1.62493 100.726 2.9429L102.451 5.88664C102.733 6.36761 103.203 6.70904 103.748 6.8286L107.081 7.5603C108.573 7.8879 109.162 9.69996 108.147 10.8421L105.881 13.3931C105.511 13.8099 105.331 14.3624 105.386 14.9173L105.72 18.3132C105.869 19.8337 104.328 20.9536 102.928 20.3415L99.8015 18.9744C99.2907 18.751 98.7098 18.751 98.199 18.9744L95.0724 20.3415C93.6726 20.9536 92.1312 19.8337 92.2808 18.3132L92.6148 14.9173C92.6694 14.3624 92.4899 13.8099 92.1196 13.3931L89.8533 10.8421C88.8386 9.69995 89.4274 7.8879 90.9196 7.5603L94.2526 6.8286C94.7971 6.70904 95.2671 6.36761 95.5491 5.88664L97.2749 2.9429Z" fill="#FF8D4D"/>
<path d="M126.275 2.9429C127.048 1.62493 128.953 1.62493 129.726 2.9429L131.451 5.88664C131.733 6.36761 132.203 6.70904 132.748 6.8286L136.081 7.5603C137.573 7.8879 138.162 9.69996 137.147 10.8421L134.881 13.3931C134.511 13.8099 134.331 14.3624 134.386 14.9173L134.72 18.3132C134.869 19.8337 133.328 20.9536 131.928 20.3415L128.802 18.9744C128.291 18.751 127.71 18.751 127.199 18.9744L124.072 20.3415C122.673 20.9536 121.131 19.8337 121.281 18.3132L121.615 14.9173C121.669 14.3624 121.49 13.8099 121.12 13.3931L118.853 10.8421C117.839 9.69995 118.427 7.8879 119.92 7.5603L123.253 6.8286C123.797 6.70904 124.267 6.36761 124.549 5.88664L126.275 2.9429Z" fill="#FF8D4D"/>
</svg>
