<svg width="78" height="78" viewBox="0 0 78 78" fill="none" xmlns="http://www.w3.org/2000/svg">
<rect x="1" y="1" width="76" height="76" rx="13" fill="#FFDECC"/>
<rect x="1" y="1" width="76" height="76" rx="13" stroke="#262626" stroke-width="2"/>
<path fill-rule="evenodd" clip-rule="evenodd" d="M26.25 25.1875C26.8368 25.1875 27.3125 25.6632 27.3125 26.25V27.0142L29.9166 26.3632C33.1154 25.5635 36.4947 25.9344 39.4438 27.409L39.5964 27.4853C42.0418 28.708 44.8386 29.0347 47.5001 28.4085L51.9053 27.3719C52.2409 27.293 52.594 27.3818 52.8523 27.6101C53.1106 27.8384 53.2421 28.1778 53.205 28.5206C52.9456 30.9153 52.8125 33.3481 52.8125 35.8125C52.8125 38.2974 52.9479 40.7503 53.2115 43.1643C53.2698 43.6978 52.9211 44.191 52.3987 44.3139L47.9868 45.352C44.8414 46.0921 41.5362 45.706 38.646 44.2609L38.4934 44.1846C35.998 42.9369 33.1386 42.623 30.432 43.2997L27.3125 44.0796V51.75C27.3125 52.3368 26.8368 52.8125 26.25 52.8125C25.6632 52.8125 25.1875 52.3368 25.1875 51.75V26.25C25.1875 25.6632 25.6632 25.1875 26.25 25.1875Z" fill="#262626"/>
</svg>
