<svg width="78" height="78" viewBox="0 0 78 78" fill="none" xmlns="http://www.w3.org/2000/svg">
<rect x="1" y="1" width="76" height="76" rx="13" fill="#FFDECC"/>
<rect x="1" y="1" width="76" height="76" rx="13" stroke="#262626" stroke-width="2"/>
<path d="M28.375 31.0312C28.375 27.8038 30.9913 25.1875 34.2188 25.1875C37.4462 25.1875 40.0625 27.8038 40.0625 31.0312C40.0625 34.2587 37.4462 36.875 34.2188 36.875C30.9913 36.875 28.375 34.2587 28.375 31.0312Z" fill="#262626"/>
<path d="M42.1875 34.2188C42.1875 31.5781 44.3281 29.4375 46.9688 29.4375C49.6094 29.4375 51.75 31.5781 51.75 34.2188C51.75 36.8594 49.6094 39 46.9688 39C44.3281 39 42.1875 36.8594 42.1875 34.2188Z" fill="#262626"/>
<path d="M24.125 49.0938C24.125 43.5191 28.6441 39 34.2188 39C39.7934 39 44.3125 43.5191 44.3125 49.0938V49.0974C44.3125 49.1538 44.312 49.2104 44.311 49.2665C44.3049 49.6327 44.1105 49.9699 43.7967 50.1589C40.9985 51.8437 37.7201 52.8125 34.2188 52.8125C30.7174 52.8125 27.439 51.8437 24.6408 50.1589C24.327 49.9699 24.1326 49.6327 24.1265 49.2665C24.1255 49.2091 24.125 49.1515 24.125 49.0938Z" fill="#262626"/>
<path d="M46.4373 49.0982C46.4373 49.1663 46.4367 49.2345 46.4355 49.3022C46.4275 49.782 46.3117 50.2452 46.1055 50.6619C46.3911 50.6789 46.6788 50.6875 46.9685 50.6875C49.2291 50.6875 51.3704 50.1638 53.2749 49.2301C53.6249 49.0586 53.8528 48.7092 53.8688 48.3198C53.8728 48.2241 53.8748 48.1279 53.8748 48.0312C53.8748 44.217 50.7827 41.125 46.9685 41.125C45.9111 41.125 44.9091 41.3627 44.0132 41.7875C45.5357 43.8253 46.4373 46.3543 46.4373 49.0938V49.0982Z" fill="#262626"/>
</svg>
