<svg width="78" height="78" viewBox="0 0 78 78" fill="none" xmlns="http://www.w3.org/2000/svg">
<rect x="1" y="1" width="76" height="76" rx="13" fill="#FFDECC"/>
<rect x="1" y="1" width="76" height="76" rx="13" stroke="#262626" stroke-width="2"/>
<path fill-rule="evenodd" clip-rule="evenodd" d="M49.5527 33.9682L45.216 37.5821C45.428 38.5147 45.428 39.4853 45.216 40.4179L49.5527 44.0318C51.0658 40.8583 51.0658 37.1417 49.5527 33.9682ZM44.0318 49.5527L40.4179 45.216C39.4853 45.428 38.5147 45.428 37.5821 45.216L33.9682 49.5527C37.1417 51.0658 40.8583 51.0658 44.0318 49.5527ZM28.4473 44.0318L32.784 40.4179C32.572 39.4853 32.572 38.5147 32.784 37.5821L28.4473 33.9682C26.9342 37.1417 26.9342 40.8583 28.4473 44.0318ZM33.9682 28.4473L37.5821 32.784C38.5147 32.572 39.4853 32.572 40.4179 32.784L44.0318 28.4473C40.8583 26.9342 37.1417 26.9342 33.9682 28.4473ZM46.2328 27.2292C47.1351 27.7846 47.9866 28.4528 48.7669 29.2331C49.5472 30.0134 50.2154 30.8649 50.7708 31.7672C53.4931 36.1898 53.4931 41.8102 50.7708 46.2328C50.2154 47.1351 49.5472 47.9866 48.7669 48.7669C47.9866 49.5472 47.1351 50.2154 46.2328 50.7708C41.8102 53.4931 36.1898 53.4931 31.7672 50.7708C30.8649 50.2154 30.0134 49.5472 29.2331 48.7669C28.4528 47.9866 27.7846 47.1351 27.2292 46.2328C24.5069 41.8102 24.5069 36.1898 27.2292 31.7672C27.7846 30.8649 28.4528 30.0134 29.2331 29.2331C30.0134 28.4528 30.8649 27.7846 31.7672 27.2292C36.1898 24.5069 41.8102 24.5069 46.2328 27.2292ZM42.0052 35.9948C41.544 35.5336 41.0057 35.202 40.4329 34.9975C39.5086 34.6675 38.4914 34.6675 37.5671 34.9975C36.9943 35.202 36.456 35.5336 35.9948 35.9948C35.5336 36.456 35.202 36.9943 34.9975 37.5671C34.6675 38.4914 34.6675 39.5086 34.9975 40.4329C35.202 41.0057 35.5336 41.544 35.9948 42.0052C36.456 42.4664 36.9943 42.798 37.5671 43.0025C38.4914 43.3325 39.5086 43.3325 40.4329 43.0025C41.0057 42.798 41.544 42.4664 42.0052 42.0052C42.4664 41.544 42.798 41.0057 43.0025 40.4329C43.3325 39.5086 43.3325 38.4914 43.0025 37.5671C42.798 36.9943 42.4664 36.456 42.0052 35.9948Z" fill="#262626"/>
</svg>
