<svg width="78" height="78" viewBox="0 0 78 78" fill="none" xmlns="http://www.w3.org/2000/svg">
<rect x="1" y="1" width="76" height="76" rx="13" fill="#FFDECC"/>
<rect x="1" y="1" width="76" height="76" rx="13" stroke="#262626" stroke-width="2"/>
<path d="M39.0056 47.4669C45.6009 47.4669 50.2944 44.9118 50.2944 41.1624V35.6321C50.2944 32.3139 46.3016 30.5 39.0056 30.5C31.6984 30.5 27.7056 32.3139 27.7056 35.6321V41.1624C27.7056 44.9118 32.3991 47.4669 39.0056 47.4669ZM32.9774 36.6054C32.9774 36.1077 33.3889 35.6874 33.9006 35.6874H44.1106C44.6334 35.6874 45.0448 36.1077 45.0448 36.6054C45.0448 37.1142 44.6334 37.5345 44.1106 37.5345H33.9006C33.3889 37.5345 32.9774 37.1142 32.9774 36.6054ZM32.9774 40.8748C32.9774 40.366 33.3889 39.9457 33.9006 39.9457H44.1106C44.6334 39.9457 45.0448 40.366 45.0448 40.8748C45.0448 41.3835 44.6334 41.7927 44.1106 41.7927H33.9006C33.3889 41.7927 32.9774 41.3835 32.9774 40.8748ZM22 37.7668C22 41.3283 24.6026 43.8169 28.5064 43.8169H29.2293V42.0362H28.3284C25.6258 42.0362 23.7906 40.2443 23.7906 37.7668C23.7906 36.539 24.4468 35.7869 25.6369 35.7869H28.7733V34.0062H25.6369C23.3346 34.0062 22 35.4219 22 37.7668ZM56 37.7668C56 35.4219 54.6765 34.0062 52.3631 34.0062H49.2267V35.7869H52.3631C53.5532 35.7869 54.2094 36.539 54.2094 37.7668C54.2094 40.2443 52.3742 42.0362 49.6715 42.0362H48.7707V43.8169H49.5048C53.3974 43.8169 56 41.3283 56 37.7668Z" fill="#262626"/>
</svg>
