<svg width="78" height="78" viewBox="0 0 78 78" fill="none" xmlns="http://www.w3.org/2000/svg">
<rect x="1" y="1" width="76" height="76" rx="13" fill="#FFDECC"/>
<rect x="1" y="1" width="76" height="76" rx="13" stroke="#262626" stroke-width="2"/>
<path d="M28.4824 45.5115L28.8517 46.9105C29.3194 48.7294 30.341 49.6621 32.3719 49.6621H45.6282C47.6715 49.6621 48.6807 48.7527 49.1607 46.9105L49.53 45.5115H28.4824ZM28.0762 43.9142H49.9485L52.2625 34.9368L51.2532 34.3888L45.579 38.3062C45.1605 38.5861 44.8774 38.4811 44.6435 38.1663L39.3016 30.518L38.7108 30.4947L33.3197 38.2013C33.1104 38.5044 32.8643 38.5977 32.4458 38.3179L26.8823 34.4704L25.7007 34.7619L28.0762 43.9142ZM26.1561 37.2685C27.7808 37.2685 29.0855 36.0211 29.0855 34.4704C29.0855 32.9548 27.7808 31.6956 26.1561 31.6956C24.5314 31.6956 23.2144 32.9431 23.2144 34.4704C23.2144 36.0211 24.5437 37.2685 26.1561 37.2685ZM39.0063 32.4185C40.6186 32.4185 41.9356 31.1709 41.9356 29.632C41.9356 28.1163 40.6186 26.8571 39.0063 26.8571C37.3692 26.8571 36.0645 28.1046 36.0645 29.632C36.0645 31.1709 37.3815 32.4185 39.0063 32.4185ZM51.844 37.2685C53.4565 37.2685 54.7858 36.0211 54.7858 34.4704C54.7858 32.9431 53.4688 31.6956 51.844 31.6956C50.2317 31.6956 48.9147 32.9548 48.9147 34.4704C48.9147 36.0211 50.2317 37.2685 51.844 37.2685Z" fill="#262626"/>
</svg>
