<svg width="78" height="78" viewBox="0 0 78 78" fill="none" xmlns="http://www.w3.org/2000/svg">
<rect x="1" y="1" width="76" height="76" rx="13" fill="#FFDECC"/>
<rect x="1" y="1" width="76" height="76" rx="13" stroke="#262626" stroke-width="2"/>
<path d="M38.5747 25.9741C38.8459 25.8556 39.1543 25.8556 39.4255 25.9741C44.6938 28.276 49.6869 31.0898 54.3418 34.3527C54.6787 34.5888 54.849 34.9982 54.779 35.4036C54.709 35.8089 54.4112 36.1375 54.0147 36.2469C53.0444 36.5148 52.0824 36.8032 51.1292 37.1106C47.2602 38.3584 43.5358 39.9284 39.9876 41.7891L39.983 41.7915C39.8221 41.8759 39.6616 41.9609 39.5015 42.0464C39.1886 42.2136 38.8129 42.2136 38.5 42.0464C38.3384 41.96 38.1763 41.8742 38.0139 41.7891C36.2594 40.869 34.4618 40.0201 32.625 39.246V38.9291C32.625 38.743 32.7205 38.5779 32.8683 38.4883C35.0005 37.1966 37.2 36.0046 39.46 34.9191C39.989 34.665 40.2118 34.0302 39.9577 33.5013C39.7037 32.9723 39.0689 32.7495 38.54 33.0036C36.2177 34.119 33.9579 35.3437 31.7672 36.6709C31.1249 37.06 30.6931 37.6968 30.5511 38.4103C29.34 37.9444 28.1129 37.5105 26.8709 37.11C25.9177 36.8026 24.9558 36.5147 23.9855 36.2469C23.589 36.1375 23.2912 35.8089 23.2212 35.4035C23.1512 34.9982 23.3215 34.5888 23.6584 34.3527C28.3133 31.0898 33.3064 28.276 38.5747 25.9741Z" fill="#262626"/>
<path d="M40.5029 43.9207C43.958 42.0746 47.588 40.5139 51.3616 39.27C51.5517 41.2743 51.6732 43.2985 51.7235 45.3402C51.7343 45.7783 51.475 46.1781 51.0706 46.3469C47.0315 48.0332 43.1896 50.0982 39.5892 52.4975C39.2324 52.7353 38.7676 52.7353 38.4108 52.4975C34.8105 50.0982 30.9685 48.0332 26.9294 46.3469C26.5251 46.1781 26.2658 45.7783 26.2766 45.3402C26.3269 43.2984 26.4483 41.274 26.6386 39.2695C27.9433 39.6996 29.2309 40.1675 30.5 40.672V42.4718C29.8648 42.8392 29.4375 43.5259 29.4375 44.3125C29.4375 45.0142 29.7776 45.6364 30.302 46.0234C30.1752 46.5626 29.9875 47.0903 29.7389 47.5956C30.3802 47.8983 31.0161 48.2107 31.6462 48.5326C32.0051 47.8027 32.2653 47.0366 32.4269 46.2543C33.1697 45.9232 33.6875 45.1783 33.6875 44.3125C33.6875 43.5259 33.2602 42.8392 32.625 42.4718V41.5583C34.2845 42.2834 35.91 43.0719 37.4986 43.9207C38.4372 44.4222 39.5643 44.4222 40.5029 43.9207Z" fill="#262626"/>
<path d="M28.3215 49.5716C28.9153 48.9778 29.3879 48.309 29.7389 47.5956C30.3802 47.8983 31.0161 48.2107 31.6462 48.5326C31.1949 49.4504 30.5873 50.3109 29.8241 51.0742C29.4092 51.4891 28.7364 51.4891 28.3215 51.0742C27.9066 50.6592 27.9066 49.9865 28.3215 49.5716Z" fill="#262626"/>
</svg>
