<svg width="233" height="80" viewBox="0 0 233 80" fill="none" xmlns="http://www.w3.org/2000/svg">
<mask id="path-1-outside-1_73_9396" maskUnits="userSpaceOnUse" x="-2" y="0" width="235" height="80" fill="black">
<rect fill="white" x="-2" width="235" height="80"/>
<path d="M0 0H230.693V80H0V0Z"/>
</mask>
<path d="M0 0H230.693V80H0V0Z" fill="#FF8D4D"/>
<path d="M228.693 0V80H232.693V0H228.693ZM2 80V0H-2V80H2Z" fill="#262626" mask="url(#path-1-outside-1_73_9396)"/>
<path d="M35.6667 39.9999L44 31.6666L52.3334 39.9999L44 48.3333L35.6667 39.9999Z" fill="#1A1A1A"/>
<path d="M60.6667 29.9999V39.9999L44 23.3333H54L60.6667 29.9999Z" fill="#1A1A1A"/>
<path d="M60.6667 49.9999V39.9999L44 56.6666H54L60.6667 49.9999Z" fill="#1A1A1A"/>
<path d="M27.3334 49.9999V39.9999L44 56.6666H34L27.3334 49.9999Z" fill="#1A1A1A"/>
<path d="M27.3334 29.9999V39.9999L44 23.3333H34L27.3334 29.9999Z" fill="#1A1A1A"/>
<path d="M70.6466 47.4999V32.3332H73.1383V47.4999H70.6466ZM72.3583 47.4999V45.2249H80.2883V47.4999H72.3583Z" fill="#262626"/>
<path d="M82.2557 47.4999V37.0999H84.639V47.4999H82.2557ZM83.4474 35.1932C83.0429 35.1932 82.7035 35.056 82.429 34.7816C82.169 34.5071 82.039 34.1677 82.039 33.7632C82.039 33.3588 82.169 33.0193 82.429 32.7449C82.7035 32.4705 83.0429 32.3332 83.4474 32.3332C83.8663 32.3332 84.2057 32.4705 84.4657 32.7449C84.7257 33.0193 84.8557 33.3588 84.8557 33.7632C84.8557 34.1677 84.7257 34.5071 84.4657 34.7816C84.2057 35.056 83.8663 35.1932 83.4474 35.1932Z" fill="#262626"/>
<path d="M88.8938 47.4999V32.7666H91.2772V47.4999H88.8938ZM86.4022 39.2666V37.0999H100.052V39.2666H86.4022ZM95.1772 47.4999V32.7666H97.5605V47.4999H95.1772Z" fill="#262626"/>
<path d="M101.785 47.4999V31.8999H104.168V47.4999H101.785Z" fill="#262626"/>
<path d="M111.652 47.7166C110.612 47.7166 109.673 47.4855 108.836 47.0232C108.012 46.5466 107.355 45.8966 106.864 45.0732C106.387 44.2499 106.149 43.3255 106.149 42.2999C106.149 41.2743 106.387 40.3571 106.864 39.5482C107.341 38.7249 107.983 38.0749 108.792 37.5982C109.616 37.1216 110.526 36.8832 111.522 36.8832C112.49 36.8832 113.342 37.1071 114.079 37.5549C114.83 38.0027 115.415 38.6166 115.834 39.3966C116.267 40.1766 116.484 41.0649 116.484 42.0616C116.484 42.2349 116.47 42.4155 116.441 42.6032C116.426 42.7766 116.397 42.9716 116.354 43.1882H107.817V41.2382H115.119L114.231 42.0182C114.202 41.3827 114.079 40.8482 113.862 40.4149C113.646 39.9816 113.335 39.6493 112.931 39.4182C112.541 39.1871 112.057 39.0716 111.479 39.0716C110.872 39.0716 110.345 39.2016 109.897 39.4616C109.45 39.7216 109.103 40.0899 108.857 40.5666C108.612 41.0288 108.489 41.5849 108.489 42.2349C108.489 42.8849 108.619 43.4555 108.879 43.9466C109.139 44.4377 109.507 44.8205 109.984 45.0949C110.461 45.3549 111.01 45.4849 111.631 45.4849C112.165 45.4849 112.656 45.391 113.104 45.2032C113.566 45.0155 113.956 44.741 114.274 44.3799L115.791 45.9182C115.285 46.5105 114.671 46.9582 113.949 47.2616C113.227 47.5649 112.461 47.7166 111.652 47.7166Z" fill="#262626"/>
<path d="M123.057 47.4999V32.3332H125.549V47.4999H123.057ZM124.769 47.4999V45.2249H132.699V47.4999H124.769Z" fill="#262626"/>
<path d="M139.116 47.7166C138.076 47.7166 137.138 47.4855 136.3 47.0232C135.476 46.5466 134.819 45.8966 134.328 45.0732C133.851 44.2499 133.613 43.3255 133.613 42.2999C133.613 41.2743 133.851 40.3571 134.328 39.5482C134.805 38.7249 135.448 38.0749 136.257 37.5982C137.08 37.1216 137.99 36.8832 138.986 36.8832C139.954 36.8832 140.806 37.1071 141.543 37.5549C142.294 38.0027 142.879 38.6166 143.298 39.3966C143.731 40.1766 143.948 41.0649 143.948 42.0616C143.948 42.2349 143.934 42.4155 143.905 42.6032C143.89 42.7766 143.861 42.9716 143.818 43.1882H135.281V41.2382H142.583L141.695 42.0182C141.666 41.3827 141.543 40.8482 141.326 40.4149C141.11 39.9816 140.799 39.6493 140.395 39.4182C140.005 39.1871 139.521 39.0716 138.943 39.0716C138.336 39.0716 137.809 39.2016 137.361 39.4616C136.914 39.7216 136.567 40.0899 136.321 40.5666C136.076 41.0288 135.953 41.5849 135.953 42.2349C135.953 42.8849 136.083 43.4555 136.343 43.9466C136.603 44.4377 136.971 44.8205 137.448 45.0949C137.925 45.3549 138.474 45.4849 139.095 45.4849C139.629 45.4849 140.12 45.391 140.568 45.2032C141.03 45.0155 141.42 44.741 141.738 44.3799L143.255 45.9182C142.749 46.5105 142.135 46.9582 141.413 47.2616C140.691 47.5649 139.925 47.7166 139.116 47.7166Z" fill="#262626"/>
<path d="M150.214 47.7166C149.275 47.7166 148.423 47.4782 147.657 47.0016C146.906 46.5249 146.306 45.8821 145.859 45.0732C145.425 44.2499 145.209 43.3327 145.209 42.3216C145.209 41.296 145.425 40.3788 145.859 39.5699C146.306 38.7466 146.906 38.0966 147.657 37.6199C148.423 37.1288 149.275 36.8832 150.214 36.8832C151.008 36.8832 151.709 37.0566 152.315 37.4032C152.937 37.7355 153.428 38.1977 153.789 38.7899C154.15 39.3821 154.33 40.0538 154.33 40.8049V43.7949C154.33 44.546 154.15 45.2177 153.789 45.8099C153.442 46.4021 152.958 46.8716 152.337 47.2182C151.716 47.5505 151.008 47.7166 150.214 47.7166ZM150.604 45.4632C151.485 45.4632 152.193 45.1671 152.727 44.5749C153.276 43.9827 153.55 43.2243 153.55 42.2999C153.55 41.6788 153.428 41.1299 153.182 40.6532C152.937 40.1766 152.59 39.8082 152.142 39.5482C151.709 39.2738 151.196 39.1366 150.604 39.1366C150.026 39.1366 149.513 39.2738 149.065 39.5482C148.632 39.8082 148.285 40.1766 148.025 40.6532C147.78 41.1299 147.657 41.6788 147.657 42.2999C147.657 42.921 147.78 43.4699 148.025 43.9466C148.285 44.4232 148.632 44.7988 149.065 45.0732C149.513 45.3332 150.026 45.4632 150.604 45.4632ZM153.399 47.4999V44.7049L153.81 42.1699L153.399 39.6566V37.0999H155.782V47.4999H153.399Z" fill="#262626"/>
<path d="M158.427 47.4999V37.0999H160.81V47.4999H158.427ZM160.81 41.7149L159.987 41.3032C159.987 39.9888 160.276 38.9271 160.854 38.1182C161.446 37.2949 162.334 36.8832 163.519 36.8832C164.039 36.8832 164.508 36.9771 164.927 37.1649C165.346 37.3527 165.736 37.656 166.097 38.0749L164.537 39.6782C164.349 39.476 164.14 39.3316 163.909 39.2449C163.678 39.1582 163.41 39.1149 163.107 39.1149C162.443 39.1149 161.894 39.3243 161.46 39.7432C161.027 40.1621 160.81 40.8193 160.81 41.7149Z" fill="#262626"/>
<path d="M174.379 47.4999V41.4982C174.379 40.8049 174.155 40.2343 173.707 39.7866C173.274 39.3388 172.71 39.1149 172.017 39.1149C171.555 39.1149 171.143 39.216 170.782 39.4182C170.421 39.6205 170.139 39.9021 169.937 40.2632C169.735 40.6243 169.634 41.036 169.634 41.4982L168.702 40.9782C168.702 40.1838 168.875 39.4832 169.222 38.8766C169.569 38.2555 170.045 37.7716 170.652 37.4249C171.273 37.0638 171.966 36.8832 172.732 36.8832C173.512 36.8832 174.205 37.0855 174.812 37.4899C175.419 37.8799 175.895 38.3927 176.242 39.0282C176.589 39.6493 176.762 40.2993 176.762 40.9782V47.4999H174.379ZM167.25 47.4999V37.0999H169.634V47.4999H167.25Z" fill="#262626"/>
<path d="M184.016 47.7166C182.976 47.7166 182.037 47.4855 181.199 47.0232C180.376 46.5466 179.718 45.8966 179.227 45.0732C178.751 44.2499 178.512 43.3255 178.512 42.2999C178.512 41.2743 178.751 40.3571 179.227 39.5482C179.704 38.7249 180.347 38.0749 181.156 37.5982C181.979 37.1216 182.889 36.8832 183.886 36.8832C184.853 36.8832 185.706 37.1071 186.442 37.5549C187.193 38.0027 187.778 38.6166 188.197 39.3966C188.631 40.1766 188.847 41.0649 188.847 42.0616C188.847 42.2349 188.833 42.4155 188.804 42.6032C188.789 42.7766 188.761 42.9716 188.717 43.1882H180.181V41.2382H187.482L186.594 42.0182C186.565 41.3827 186.442 40.8482 186.226 40.4149C186.009 39.9816 185.698 39.6493 185.294 39.4182C184.904 39.1871 184.42 39.0716 183.842 39.0716C183.236 39.0716 182.708 39.2016 182.261 39.4616C181.813 39.7216 181.466 40.0899 181.221 40.5666C180.975 41.0288 180.852 41.5849 180.852 42.2349C180.852 42.8849 180.982 43.4555 181.242 43.9466C181.502 44.4377 181.871 44.8205 182.347 45.0949C182.824 45.3549 183.373 45.4849 183.994 45.4849C184.528 45.4849 185.019 45.391 185.467 45.2032C185.929 45.0155 186.319 44.741 186.637 44.3799L188.154 45.9182C187.648 46.5105 187.034 46.9582 186.312 47.2616C185.59 47.5649 184.824 47.7166 184.016 47.7166Z" fill="#262626"/>
<path d="M190.758 47.4999V37.0999H193.141V47.4999H190.758ZM193.141 41.7149L192.318 41.3032C192.318 39.9888 192.607 38.9271 193.184 38.1182C193.777 37.2949 194.665 36.8832 195.849 36.8832C196.369 36.8832 196.839 36.9771 197.258 37.1649C197.677 37.3527 198.067 37.656 198.428 38.0749L196.868 39.6782C196.68 39.476 196.471 39.3316 196.239 39.2449C196.008 39.1582 195.741 39.1149 195.438 39.1149C194.773 39.1149 194.224 39.3243 193.791 39.7432C193.358 40.1621 193.141 40.8193 193.141 41.7149Z" fill="#262626"/>
<path d="M202.75 47.7166C202.172 47.7166 201.616 47.6443 201.082 47.4999C200.547 47.341 200.056 47.1243 199.608 46.8499C199.161 46.561 198.771 46.2143 198.438 45.8099L199.955 44.2932C200.316 44.7121 200.728 45.0299 201.19 45.2466C201.667 45.4488 202.201 45.5499 202.793 45.5499C203.328 45.5499 203.732 45.4705 204.007 45.3116C204.281 45.1527 204.418 44.9216 204.418 44.6182C204.418 44.3005 204.288 44.0549 204.028 43.8816C203.768 43.7082 203.429 43.5638 203.01 43.4482C202.606 43.3182 202.172 43.1882 201.71 43.0582C201.262 42.9282 200.829 42.7549 200.41 42.5382C200.006 42.3071 199.673 41.9966 199.413 41.6066C199.153 41.2166 199.023 40.711 199.023 40.0899C199.023 39.4255 199.175 38.8549 199.478 38.3782C199.796 37.9016 200.237 37.5332 200.8 37.2732C201.378 37.0132 202.064 36.8832 202.858 36.8832C203.696 36.8832 204.433 37.0349 205.068 37.3382C205.718 37.6271 206.26 38.0677 206.693 38.6599L205.177 40.1766C204.873 39.801 204.527 39.5193 204.137 39.3316C203.747 39.1438 203.299 39.0499 202.793 39.0499C202.317 39.0499 201.948 39.1221 201.688 39.2666C201.428 39.411 201.298 39.6205 201.298 39.8949C201.298 40.1838 201.428 40.4077 201.688 40.5666C201.948 40.7255 202.281 40.8627 202.685 40.9782C203.104 41.0938 203.537 41.2238 203.985 41.3682C204.447 41.4982 204.881 41.686 205.285 41.9316C205.704 42.1627 206.043 42.4805 206.303 42.8849C206.563 43.2749 206.693 43.7877 206.693 44.4232C206.693 45.4343 206.339 46.236 205.632 46.8282C204.924 47.4205 203.963 47.7166 202.75 47.7166Z" fill="#262626"/>
</svg>
