<svg width="80" height="80" viewBox="0 0 80 80" fill="none" xmlns="http://www.w3.org/2000/svg">
<rect x="0.500244" y="0.5" width="79" height="79" rx="39.5" fill="#FFF5F0"/>
<rect x="0.500244" y="0.5" width="79" height="79" rx="39.5" stroke="#333333"/>
<mask id="mask0_57_6984" style="mask-type:luminance" maskUnits="userSpaceOnUse" x="11" y="11" width="58" height="58">
<path d="M68.2383 11.875H11.8713V68.242H68.2383V11.875Z" fill="white"/>
</mask>
<g mask="url(#mask0_57_6984)">
<path d="M41.2093 18.7531C42.8198 18.8106 44.4303 19.0982 46.0408 19.6158C48.2921 20.2514 50.2977 21.555 51.7925 23.3545C52.8853 24.7924 53.5756 26.5179 53.8056 28.3009C54.1161 30.2224 54.1548 32.178 53.9207 34.1102L53.6331 36.0658L53.403 37.2161C53.3455 37.3312 53.3455 37.3312 53.2304 37.3312C53.1154 37.1011 53.1154 36.871 53.1154 36.641C53.0579 35.7782 53.1729 34.9729 53.2304 34.1102C53.288 32.7298 53.403 31.3494 53.288 29.9689L52.9429 27.3807C52.5402 25.7702 51.7925 24.2747 50.6422 23.0669C49.6069 22.0316 48.3415 21.1688 47.0186 20.5936C45.7532 20.076 44.4878 19.7309 43.1649 19.5008C42.1296 19.3282 41.0943 19.2707 40.059 19.2707C37.5067 19.2289 34.9818 19.801 32.6968 20.9387C31.949 21.4564 31.2588 22.0891 30.6837 22.7793C28.9138 25.1025 27.8192 27.869 27.5202 30.7742C27.4627 32.1546 27.5202 33.4775 27.9803 34.8004L28.383 35.6632L29.0732 35.7207L29.1307 35.8932C28.9581 36.0083 28.7281 36.0083 28.498 36.0658C27.9228 36.1808 27.3477 36.4109 26.83 36.756C26.4274 37.0436 26.0248 37.3887 25.7947 37.8488C25.5071 38.424 25.6221 39.1142 25.7372 39.7469C26.0248 40.8397 26.715 41.875 27.6352 42.5652C28.2679 43.0829 29.0732 43.3705 29.8784 43.4855C30.4536 43.6005 31.0288 43.4855 31.6039 43.428C31.8915 43.6581 32.0641 44.1182 32.2366 44.4058L33.2719 45.9588C34.2077 47.2886 35.5345 48.2939 37.0681 48.8346C38.3335 49.3523 39.6564 49.6399 40.9793 49.9274L43.3375 50.3876L44.3153 50.6752V50.9052H43.6251C42.3321 50.8331 41.045 50.6794 39.7714 50.4451C38.0609 50.1047 36.4248 49.4619 34.9399 48.547C34.3073 48.1444 33.7321 47.6268 33.2719 46.9941C33.6703 49.3914 33.3501 51.853 32.3517 54.0687C31.4889 55.6217 30.051 56.8295 28.3255 57.3472C28.1529 57.4047 27.9228 57.4622 27.7503 57.4047C27.6352 57.4047 27.6352 57.3472 27.6352 57.2321C27.6928 57.0596 27.8653 56.9446 27.9803 56.887C28.6706 56.4269 29.4758 56.0818 30.166 55.5641C30.9137 54.9315 31.5464 54.2412 31.949 53.3785C32.2941 52.5157 32.5242 51.5379 32.6392 50.5601C32.7543 49.8124 32.8118 49.0647 32.7543 48.2594L32.5242 46.0738L31.4889 44.0032L30.3961 44.2332C29.5518 44.2578 28.7147 44.0707 27.9613 43.6889C27.2078 43.3072 26.5618 42.7429 26.0823 42.0476C25.3325 41.0977 24.927 39.9217 24.9319 38.7116C24.9319 38.1939 25.1045 37.6763 25.3921 37.2736C25.6797 36.871 26.0823 36.5259 26.4849 36.2958C26.7725 36.0658 27.1751 35.9507 27.5202 35.8357L27.0026 34.4553C26.715 33.1899 26.715 31.867 26.8875 30.6016C27.2642 27.4607 28.5202 24.49 30.5111 22.0316C31.0288 21.4564 31.5464 20.9387 32.1791 20.5361C32.5817 20.306 32.9844 20.2485 33.3295 20.0184C35.8027 18.9256 38.506 18.5805 41.2093 18.7531Z" fill="#262626"/>
<path d="M40.0583 19.2692C42.4482 19.1803 44.8273 19.6325 47.0179 20.5921C48.3408 21.1672 49.6062 22.03 50.6415 23.0653C51.7918 24.2732 52.5396 25.7686 52.9422 27.3791L53.2873 29.9674C53.4023 31.3478 53.2873 32.7282 53.2298 34.1086C53.1723 34.9714 53.0572 35.7766 53.1147 36.6394C53.1147 36.8695 53.1147 37.0995 53.2298 37.3296L53.1723 38.4799C53.0572 38.7675 53.0572 39.0551 53.0572 39.4002C52.9422 40.7806 52.9422 42.2186 52.7121 43.6565C52.6546 44.3467 52.5396 45.0944 52.252 45.7271C52.0794 46.2448 51.7918 46.7049 51.3892 47.1075C50.699 47.8553 49.8363 48.4879 48.916 49.0056C47.8231 49.6383 46.6728 49.9259 45.58 50.386C45.2924 50.5011 45.0048 50.6161 44.8322 50.8462C45.2924 50.9037 45.695 50.8462 46.1551 50.7311C45.8676 51.4213 45.81 52.1115 45.81 52.8017C45.81 53.0893 45.7525 53.4344 45.8676 53.722C46.0401 54.0096 46.3277 54.2397 46.6153 54.4122L48.6284 55.16C49.8938 55.6201 51.1016 56.1953 52.367 56.7129C52.482 56.943 52.6546 57.1155 52.7121 57.4031C53.0572 58.0358 53.1147 58.726 52.8847 59.4162C52.5971 60.164 52.0219 60.7966 51.3317 61.1993C50.4114 61.832 49.2611 62.2921 48.1683 62.5797C43.696 63.5352 39.0592 63.3971 34.6517 62.1771C33.5013 61.7744 32.351 61.3718 31.3157 60.7966C30.5104 60.3365 29.6477 59.7613 29.015 59.0136C28.6699 58.5535 28.3823 57.9208 28.3248 57.3456C29.6716 56.9345 30.8636 56.1278 31.7458 55.0302C32.6279 53.9326 33.1595 52.595 33.2713 51.1913C33.5013 49.8108 33.5013 48.3729 33.2713 46.9925C33.7314 47.6252 34.3066 48.1428 34.9393 48.5455L36.4922 49.3507C38.7472 50.3235 41.1691 50.8509 43.6244 50.9037H44.3146V50.6736L43.3368 50.386L40.9786 49.9259C39.6557 49.6383 38.3328 49.3507 37.0674 48.833C36.3197 48.4879 35.5144 48.0853 34.8242 47.6252C34.2491 47.1075 33.7314 46.5899 33.2713 45.9572L32.236 44.4042C32.0634 44.1166 31.8909 43.6565 31.6033 43.4264C31.0281 43.4839 30.4529 43.599 29.8777 43.4839C29.0725 43.3689 28.2673 43.0813 27.6346 42.5637C26.7154 41.8526 26.0499 40.8643 25.7365 39.7453C25.6215 39.1126 25.5064 38.4224 25.794 37.8472C26.0241 37.3871 26.4267 37.042 26.8293 36.7544C27.347 36.4093 27.9222 36.1792 28.4973 36.0642C28.7274 36.0067 28.9575 36.0067 29.13 35.8917L29.0725 35.7191L28.3823 35.6616L27.9797 34.7988C27.5195 33.4759 27.462 32.153 27.5771 30.7726C27.8592 27.8731 28.9337 25.1072 30.683 22.7777C31.2582 22.0875 31.9484 21.4548 32.6961 20.9372C34.9761 19.7795 37.5013 19.1877 40.0583 19.2116V19.2692Z" fill="#FFDECC"/>
<path d="M27.6936 38.1406C27.9237 38.1406 28.0962 38.1406 28.3263 38.2557C28.6139 38.3132 28.959 38.4857 29.1315 38.7158C29.2466 38.8884 29.2466 39.1184 29.1315 39.291C28.8439 39.6361 28.4413 39.8661 28.2113 40.2112C28.5564 40.4413 29.0165 40.5564 29.4191 40.7289C29.6492 40.7864 29.8793 40.9015 30.0518 41.074L30.1093 41.2466L29.6492 41.1315L28.2688 40.7289C28.0387 40.6714 27.8086 40.5564 27.7511 40.3263C27.6936 40.1537 27.8086 39.9237 27.9237 39.7511L28.7864 39.0034C28.5564 38.6008 27.9237 38.5432 27.6936 38.1406ZM53.1738 38.4857L53.2888 38.6583L53.4038 39.5786C53.5232 41.2848 53.4847 42.9984 53.2888 44.6976C53.1738 45.3303 53.0012 46.0205 52.7136 46.5957C51.1876 48.5923 49.044 50.0281 46.6168 50.6794C46.5593 51.4846 46.4442 52.4624 46.5018 53.3827L46.7894 53.6703C47.2495 54.0154 47.8247 54.188 48.3423 54.3605C49.6877 54.79 50.9958 55.3286 52.2535 55.971C52.6561 56.2011 53.0012 56.4886 53.2888 56.8337C53.0012 56.8913 52.7136 56.7762 52.3685 56.7187C51.1031 56.2011 49.8953 55.6259 48.6299 55.1657L46.6168 54.418C46.3292 54.2455 46.0416 54.0154 45.8691 53.7278C45.754 53.4402 45.8116 53.0951 45.8116 52.8075C45.8116 52.1173 45.8691 51.4271 46.1567 50.7369C45.6965 50.852 45.2939 50.9095 44.8338 50.852C45.0063 50.6219 45.2939 50.5068 45.5815 50.3918C46.6743 49.9317 47.8247 49.6441 48.9175 49.0114C49.8378 48.4937 50.7005 47.8611 51.3907 47.1133C51.7934 46.7107 52.0809 46.2506 52.2535 45.7329C52.5411 45.1002 52.6561 44.3525 52.7136 43.6623C52.9437 42.2244 52.9437 40.7864 53.0587 39.406C53.0587 39.0609 53.0587 38.7733 53.1738 38.4857Z" fill="#262626"/>
<path d="M52.5977 34.625L52.4827 35.0276C52.3101 35.3152 52.1376 35.5453 51.85 35.7178C51.5624 35.8904 51.2173 35.9479 50.8722 36.0054L49.8369 36.1205C49.5493 36.1205 49.3767 36.293 49.2617 36.4656L48.8591 36.8682C48.7441 36.9257 48.5715 36.8107 48.629 36.6956C48.6865 36.2355 49.0316 35.8904 49.2617 35.5453C49.4343 35.3727 49.6643 35.1427 49.9519 35.1427L51.6774 34.8551C51.965 34.7976 52.2526 34.625 52.5977 34.625ZM35.0549 34.8551C35.7451 34.7976 36.2628 35.0276 36.8955 35.0851C37.7582 35.2002 38.621 35.3152 39.4838 35.3152L40.8642 35.4302C41.3243 35.4878 41.842 35.4302 42.2446 35.6603C42.6472 35.8904 42.9348 36.2355 43.1649 36.5806C43.2224 36.6956 43.2799 36.8107 43.1649 36.9832C43.1074 37.0407 42.9923 36.9832 42.9348 36.9257C42.7047 36.8107 42.5322 36.5806 42.3021 36.5231L41.6119 36.4656L40.0014 36.408L38.736 36.3505C38.1609 36.293 37.5857 36.293 37.0105 36.0629C36.6079 35.9479 36.3203 35.7178 35.9177 35.5453L35.2275 35.0276C35.1124 34.9701 35.0549 34.9701 35.0549 34.8551Z" fill="#262626"/>
<path d="M41.6689 27.9549C42.0715 27.9549 42.4741 28.0699 42.7617 28.3C42.9918 28.415 43.1643 28.53 43.2218 28.7601C43.2794 28.8751 43.2218 29.0477 43.1068 29.1052C42.8192 29.1627 42.5316 28.9902 42.3016 28.9327L41.7839 28.8751C41.0362 28.8176 40.2885 28.9327 39.5407 29.1052C38.2821 29.4613 37.1084 30.0678 36.0897 30.8882C35.8596 31.0033 35.572 31.1758 35.2844 31.1183C35.1119 31.1183 35.1119 30.8882 35.1694 30.7157C35.2269 30.3706 35.572 30.083 35.8596 29.7954C36.4348 29.2778 37.1825 28.9327 37.8727 28.6451C39.0231 28.1274 40.4035 27.8398 41.6689 27.9549ZM50.6416 28.0699C51.0442 27.9549 51.4468 28.0124 51.7919 28.2425C52.022 28.415 52.2521 28.5876 52.3096 28.8751C52.3671 29.0477 52.3671 29.2202 52.1945 29.2778C52.022 29.3353 51.7919 29.3353 51.6194 29.2202C51.3318 29.0477 51.1017 28.8751 50.7566 28.8751C50.469 28.8751 50.1814 28.9327 49.9514 29.0477C49.4912 29.2778 49.0311 29.6804 48.801 30.1405L48.4559 30.6582H48.2834V30.3131C48.3984 29.8529 48.686 29.3928 49.0311 29.0477C49.4337 28.5876 50.0089 28.1849 50.6416 28.0699Z" fill="#262626"/>
<path d="M25.1619 38.0248C25.4495 38.0248 25.737 37.9673 25.9671 38.1399C26.1397 38.2549 26.2547 38.4274 26.1972 38.6575C26.0821 38.8876 25.8521 39.0601 25.5645 39.0601H24.6442C24.3566 39.0026 24.1266 38.8876 24.0115 38.6575C23.954 38.4274 24.1266 38.2549 24.2991 38.1399C24.5867 38.0248 24.8743 38.0823 25.1619 38.0248ZM25.9096 39.3477C26.0821 39.4052 26.3122 39.5203 26.3122 39.7503C26.3122 39.9229 26.2547 40.0955 26.0821 40.153C25.7946 40.383 25.4495 40.383 25.1044 40.4981C24.8168 40.5556 24.5292 40.6131 24.2991 40.4406C24.069 40.268 24.1266 39.9229 24.2991 39.7503C24.5292 39.5203 24.7593 39.5203 25.0468 39.4628C25.3344 39.4052 25.622 39.2902 25.9096 39.3477ZM30.0508 42.3386H30.511C30.6835 42.3961 30.8561 42.5687 30.8561 42.7988C30.8561 43.0864 30.626 43.3164 30.3384 43.3739C30.0508 43.489 29.8208 43.2589 29.7057 43.0288C29.6482 42.7412 29.7633 42.3961 30.0508 42.3386Z" fill="#262626"/>
<path d="M47.6512 40.1484C47.6512 40.321 47.5361 40.4935 47.4211 40.6661C47.191 41.0112 46.7884 41.2413 46.3858 41.3563C46.0982 41.4138 45.8681 41.2413 45.6381 41.3563C45.408 41.3563 45.1779 41.4138 44.9478 41.2988C44.8328 41.2413 44.8328 41.0687 44.9478 40.9537C45.1204 40.7236 45.408 40.5511 45.6381 40.5511C45.8681 40.4935 46.0407 40.4935 46.2132 40.6661L46.2707 41.0687C46.5583 40.9537 46.6734 40.7811 46.9034 40.6086L47.6512 40.1484Z" fill="#262626"/>
<path d="M54.0924 38.9461C54.61 38.9461 55.0702 39.1762 55.3578 39.5788C55.4922 39.7555 55.59 39.9572 55.6455 40.1721C55.7009 40.387 55.713 40.6108 55.6808 40.8305C55.6487 41.0501 55.573 41.2611 55.4583 41.4511C55.3436 41.6411 55.1921 41.8063 55.0127 41.937C55.4728 42.0521 55.9329 42.3397 56.278 42.6848C56.7957 43.3175 57.1983 44.1802 57.1408 45.043C57.0833 45.5031 56.9107 45.9057 56.6807 46.2508C56.2205 46.9986 55.4728 47.5162 54.6676 47.8613L55.1277 48.379C55.3002 48.7816 55.3578 49.1842 55.3578 49.6444C55.3002 50.3346 55.0127 51.0248 54.495 51.5424C53.9009 52.1105 53.1288 52.4559 52.3093 52.5202C51.7342 52.5777 51.1015 52.5777 50.5263 52.4052C50.4688 52.8078 50.3538 53.268 50.1812 53.6706C49.7937 54.3541 49.1773 54.8788 48.4408 55.1524C47.7042 55.426 46.8948 55.4308 46.155 55.166C45.4648 54.8784 44.8896 54.3608 44.5445 53.7856C43.6818 54.3033 42.7615 54.4758 41.7837 54.4758C40.9784 54.5333 40.0006 54.4758 39.3104 54.0732C38.8503 53.9006 38.5627 53.5555 38.2751 53.2104C38.1026 53.0379 37.9875 52.8653 37.93 52.5777C37.2973 53.0954 36.4346 53.2104 35.6868 53.0954C35.1117 52.9228 34.594 52.6353 34.3064 52.1176C34.0188 51.7725 33.9613 51.2548 33.9613 50.7947H33.1561C32.6959 50.7372 32.2358 50.5071 31.8332 50.2195C31.2005 49.6444 30.6828 48.8966 30.3377 48.0914C30.2227 47.7463 30.1077 47.4012 30.1077 46.9986C30.1077 46.3659 30.3377 45.7332 30.7404 45.2155C30.5678 44.8129 30.5103 44.4103 30.6253 44.0077C30.7979 43.3175 31.3155 42.7423 31.8907 42.3972C32.4084 42.0521 33.041 41.937 33.6737 41.9946C33.7888 41.6495 33.9613 41.4194 34.2489 41.1893C34.8816 40.6141 35.6868 40.269 36.5496 40.269C37.1248 40.269 37.6424 40.3266 38.1026 40.5566C38.3326 40.2115 38.6202 40.039 38.9653 39.9239C39.598 39.6364 40.2882 39.6939 40.9209 39.9815C42.0138 40.3841 42.8765 41.0168 43.9118 41.4194C44.1994 41.6495 44.602 41.5919 45.0047 41.6495C45.4073 41.707 45.8099 41.6495 46.2125 41.5919C46.3851 41.5344 46.6151 41.5344 46.7302 41.4194L47.823 40.8442L48.9733 39.9815C49.4335 39.6939 50.0087 39.4063 50.5838 39.4638C50.8139 39.5213 50.9865 39.6364 51.1015 39.8089C51.9894 39.2279 53.0315 38.9274 54.0924 38.9461Z" fill="#262626"/>
<path d="M40.2323 44.2882C40.4048 44.2307 40.5198 44.2882 40.5198 44.4032C40.5198 44.5758 40.3473 44.7483 40.1747 44.8058C40.0022 44.6333 40.0597 44.4032 40.2323 44.2882ZM41.6702 44.9784L43.7408 45.381L45.4663 45.4961C45.869 45.5536 46.2141 45.4961 46.5592 45.6111C46.5016 45.7261 46.3866 45.7836 46.2141 45.8412C44.788 46.0658 43.329 45.9475 41.9578 45.4961C41.7852 45.4385 41.5552 45.3235 41.4976 45.1509C41.4401 45.0359 41.5552 44.9209 41.6702 44.9784Z" fill="#FFDECC"/>
<path d="M39.9445 18.0063C41.5687 18.0095 43.188 18.183 44.776 18.524C45.4087 18.6965 45.9839 18.8116 46.559 19.0416L48.5721 19.7893C49.1473 19.9619 49.665 20.307 50.2401 20.5371L51.1604 20.8822L52.8284 21.2273C53.116 21.3423 53.3461 21.5149 53.4611 21.8025C53.6337 22.1476 53.5762 22.4927 53.4611 22.8378L54.0363 23.1254C54.3239 23.4129 54.4389 23.8156 54.3239 24.2182C54.2088 24.4483 53.9788 24.6208 53.7487 24.7358C52.5248 25.3635 51.1151 25.527 49.78 25.196L47.2492 24.6208L43.6832 23.643C40.6344 22.6 37.3161 22.661 34.3079 23.8156L34.0778 24.6208C33.8477 25.5411 33.6752 26.4614 33.6176 27.3816V28.3594L33.5601 28.8196C33.3876 29.2222 33.0425 29.6248 32.8124 30.0274C32.1222 31.0627 31.4895 32.1556 30.9718 33.2484L30.8568 34.0536V36.2968C30.8568 36.5844 30.9718 36.8145 30.7993 37.0445C29.9365 36.9295 29.0738 36.6994 28.1535 36.4694C28.0385 36.4694 27.8659 36.4694 27.7509 36.3543L27.3483 35.8367C27.1182 35.6641 27.0607 35.319 26.9456 35.0314C26.543 33.8236 26.428 32.4432 26.428 31.1203C26.428 29.5098 26.7156 27.9568 27.0032 26.4038C27.2332 25.5411 27.5783 24.7358 27.9809 23.9881C28.5561 22.8378 29.3614 21.86 30.2816 20.9972C31.2019 20.0769 32.2947 19.4442 33.5026 18.9841C35.5676 18.2493 37.7545 17.9173 39.9445 18.0063ZM29.3038 37.0445C29.879 37.0445 30.4542 37.2171 30.9718 37.3321C31.2019 37.3896 31.4895 37.5047 31.6621 37.6772C31.8346 37.7923 31.7771 38.0223 31.6045 38.0799C31.0869 38.2524 30.6843 38.0799 30.2241 37.9648C29.879 37.8498 29.4189 37.7348 29.0738 37.5047C28.9587 37.4472 28.7862 37.2746 28.9012 37.1596C29.0163 37.0445 29.1888 37.0445 29.3038 37.0445ZM54.4389 43.7741C54.4964 43.8891 54.4964 43.9466 54.3814 44.0617L54.4389 43.7741Z" fill="#262626"/>
</g>
</svg>
