<svg width="81" height="80" viewBox="0 0 81 80" fill="none" xmlns="http://www.w3.org/2000/svg">
<rect x="0.833496" y="0.5" width="79" height="79" rx="39.5" fill="#FFF5F0"/>
<rect x="0.833496" y="0.5" width="79" height="79" rx="39.5" stroke="#333333"/>
<mask id="mask0_57_7012" style="mask-type:luminance" maskUnits="userSpaceOnUse" x="12" y="11" width="57" height="58">
<path d="M68.5716 11.875H12.2046V68.242H68.5716V11.875Z" fill="white"/>
</mask>
<g mask="url(#mask0_57_7012)">
<path d="M43.1121 20.4046C45.4704 20.7497 47.7135 21.67 49.6116 23.1079C51.2221 24.3158 52.4875 25.9262 53.3502 27.7668C54.098 29.3773 54.5006 31.2178 54.4431 33.0009C54.3855 33.8636 54.2705 34.7264 53.9829 35.5316H53.8679L53.9254 34.3238C53.9829 32.5982 53.8104 30.9302 53.1777 29.3198C52.6025 27.5942 51.5672 26.0413 50.3018 24.7759C47.8861 22.4752 44.6651 21.2098 41.3291 21.1523C39.1593 21.1164 37.0109 21.5863 35.0542 22.5248C33.0974 23.4632 31.3861 24.8444 30.0557 26.5589C28.3524 28.8605 27.5356 31.6989 27.755 34.5538L27.8701 35.9918C28.3302 35.9918 28.9629 35.9918 29.308 36.3944L29.1354 36.5669L28.1576 36.6245C27.4674 36.682 26.7772 36.912 26.2596 37.3722C25.6874 37.9865 25.3424 38.778 25.2818 39.6154C24.9942 41.4559 25.972 43.354 27.525 44.3893C28.4452 44.9645 29.5956 45.2521 30.6884 44.9069C30.9185 44.7919 31.2061 44.6194 31.4936 44.7344C31.6662 44.7919 31.7237 44.9645 31.7812 45.137C32.9512 47.4896 34.741 49.4783 36.9578 50.8887C37.4179 51.2914 37.9931 51.6365 38.5683 51.9241C39.6036 52.3842 40.7539 52.7293 41.8468 53.0169L43.6873 53.477C43.9749 53.5345 44.205 53.5345 44.435 53.6496L44.205 53.7071C42.767 53.8221 41.4441 53.5345 40.0637 53.1319C39.3735 52.9594 38.7408 52.7293 38.1081 52.4417C36.3009 51.5212 34.6664 50.2953 33.2767 48.8181L33.3917 50.4286C33.4492 51.4064 33.3917 52.4417 33.0466 53.4195C32.8165 54.1097 32.4139 54.7999 31.9538 55.3751C31.3786 55.9503 30.6884 56.4679 29.9982 56.8705C29.423 57.2732 28.7903 57.6758 28.1576 57.9059L27.2374 58.1934L27.755 57.6758L29.5381 56.5254L30.8034 55.5477C31.7738 54.7215 32.4249 53.5821 32.644 52.3267C32.759 51.5214 32.759 50.7162 32.759 49.8534V48.3005C32.1839 47.4952 31.4936 46.6325 31.2061 45.6547C30.2283 46.1148 29.0204 46.0573 28.0426 45.5972C27.0648 45.1945 26.2021 44.5043 25.5694 43.6991C24.8792 42.7213 24.4765 41.6285 24.3615 40.4781C24.2465 39.3278 24.4765 38.1774 25.2243 37.2571C25.7419 36.682 26.4896 36.2218 27.2374 36.0493C27.0073 35.244 26.8923 34.3813 26.8923 33.5185C26.9396 31.6168 27.3895 29.7466 28.2124 28.0314C29.0353 26.3163 30.2124 24.795 31.6662 23.568C33.2368 22.2528 35.0713 21.2898 37.0459 20.7441C39.0204 20.1984 41.089 20.0826 43.1121 20.4046Z" fill="#262626"/>
<path d="M50.3014 24.7817C51.5668 26.0471 52.6021 27.6001 53.1773 29.3256C53.81 30.9361 53.9825 32.6041 53.925 34.3296L53.8675 35.5375L53.5799 36.4002L53.4649 37.148L53.5799 40.3689C53.5799 41.5768 53.6374 42.7847 53.5224 43.9925L53.3499 46.6958C53.2348 47.6161 52.9472 48.4789 52.5446 49.2841C51.9119 50.3194 51.0492 51.1822 50.0139 51.8149C49.2661 52.275 48.4609 52.5051 47.6556 52.7352L45.47 53.3679L44.4922 53.5404C44.4922 53.5979 44.5497 53.6554 44.6647 53.6554C45.1249 53.943 45.6425 53.943 46.1602 53.8855C45.9876 54.2881 45.9301 54.6908 46.0452 55.1509C46.2177 55.5535 46.6779 55.7836 47.023 55.9561C47.7132 56.3012 48.4034 56.3588 49.0936 56.4738C49.4962 56.8189 49.8988 57.279 50.0139 57.8542C50.1289 58.3143 50.1289 58.7745 49.8988 59.1771C49.6112 59.7523 49.0936 60.2124 48.5184 60.5C47.7707 60.9601 46.9654 61.3052 46.1027 61.5353C41.9034 62.5405 37.5239 62.5208 33.3338 61.4778C32.356 61.2477 31.4358 60.9601 30.573 60.5C29.8828 60.1549 29.2501 59.7523 28.7324 59.2346C28.4449 58.832 28.2148 58.4294 28.1573 57.9117C28.79 57.6817 29.4227 57.279 29.9978 56.8764C30.688 56.4738 31.3782 55.9561 31.9534 55.381C32.4136 54.8058 32.8162 54.1156 33.0462 53.4254C33.3914 52.4476 33.4489 51.4123 33.3914 50.4345L33.2763 48.824L34.5417 50.1469C35.6345 51.0096 36.8424 51.8724 38.1078 52.4476C38.7405 52.7352 39.3732 52.9652 40.0634 53.1378C41.4438 53.5404 42.7667 53.828 44.2046 53.713L44.4347 53.6554C44.2046 53.5404 43.9745 53.5404 43.687 53.4829L41.8464 53.0228C40.7536 52.7352 39.6032 52.3901 38.5679 51.9299L36.8999 50.9521C36.2672 50.4345 35.577 49.9743 35.0018 49.3992C33.673 48.1929 32.5806 46.7495 31.7809 45.1429C31.7233 44.9703 31.6658 44.7978 31.4933 44.7403C31.2057 44.6252 30.9181 44.7978 30.688 44.9128C29.5952 45.2579 28.4449 44.9703 27.5246 44.3952C26.748 43.8825 26.1277 43.1657 25.732 42.3235C25.3362 41.4813 25.1803 40.5463 25.2814 39.6212C25.3389 38.816 25.684 38.0107 26.2592 37.378C26.7769 36.9179 27.4671 36.6878 28.1573 36.6303L29.1351 36.5728L29.3076 36.4002C28.9625 35.9976 28.3298 35.9976 27.8697 35.9976L27.7547 34.5597C27.5352 31.7048 28.352 28.8664 30.0553 26.5648C31.3857 24.8503 33.097 23.4691 35.0538 22.5306C37.0105 21.5922 39.1589 21.1223 41.3287 21.1582C44.6647 21.2157 47.8857 22.4811 50.3014 24.7817Z" fill="#FFDECC"/>
<path d="M53.5808 36.3984C53.7534 36.3984 53.7534 36.6285 53.8109 36.7435C53.9834 37.3762 54.0409 38.0664 54.0985 38.6991L54.2135 39.907C54.271 41.1724 54.3285 42.3802 54.271 43.6456C54.2135 44.8535 54.2135 46.1764 53.9834 47.3842C53.7391 48.6367 53.192 49.8104 52.39 50.8029C51.588 51.7954 50.5553 52.5766 49.382 53.0785C48.5193 53.4811 47.599 53.7111 46.6212 53.8262V54.6889C46.6787 54.8615 46.7938 54.919 46.9088 55.034C47.599 55.3791 48.2317 55.4942 48.9794 55.6667C49.6696 55.8393 50.3598 55.9543 51.05 56.2994C50.8775 56.472 50.6474 56.5295 50.4173 56.5295C50.0147 56.587 49.5546 56.472 49.0944 56.472C48.4042 56.3569 47.714 56.2994 47.0238 55.9543C46.6787 55.7818 46.2186 55.5517 46.046 55.1491C45.931 54.6889 45.9885 54.2863 46.1611 53.8837C45.6434 53.9412 45.1258 53.9412 44.6656 53.6536C44.5506 53.6536 44.4931 53.5961 44.4931 53.5386L45.4709 53.366L47.6565 52.7334C48.4618 52.5033 49.267 52.2732 50.0147 51.8131C51.05 51.1804 51.9128 50.3176 52.5455 49.2823C52.9481 48.4771 53.2357 47.6143 53.3507 46.694L53.5233 43.9907C53.6383 42.7829 53.5808 41.575 53.5808 40.3671L53.4658 37.1462L53.5808 36.3984ZM27.2379 37.9514C27.698 37.9514 28.2157 38.0089 28.5608 38.354C28.8484 38.5841 29.1359 38.8717 29.251 39.2168C29.3085 39.3893 29.251 39.5619 29.1359 39.6769L28.3882 40.1371C27.9856 40.4822 27.9856 41.2299 28.3882 41.575C28.7333 41.8626 29.1935 42.0351 29.5961 42.2077C29.7111 42.2077 29.8837 42.2652 29.9412 42.3802C29.8837 42.4953 29.7686 42.5528 29.6536 42.5528C29.0784 42.5528 28.5033 42.3802 28.0431 42.0351C27.7555 41.8626 27.583 41.575 27.5255 41.2874C27.4104 40.8273 27.4104 40.3096 27.7555 39.907C27.9856 39.5619 28.3882 39.3893 28.7908 39.2168C28.5608 38.9292 28.3882 38.5841 27.9856 38.4691C27.583 38.2965 27.1228 38.2965 26.7202 38.1815L27.2379 37.9514Z" fill="#262626"/>
<path d="M52.0268 34.2734C52.2569 34.2734 52.487 34.2734 52.602 34.446C52.8321 34.6185 52.8321 35.0212 52.5445 35.1937C52.3719 35.3087 52.1994 35.3087 51.9693 35.3087L50.934 35.5388C50.934 35.9414 50.8765 36.4016 50.7039 36.8042C50.5889 37.0918 50.3588 37.3219 50.1287 37.4944C49.7836 37.667 49.381 37.5519 49.151 37.2643L48.9784 36.8042C48.8059 36.9768 48.6908 37.1493 48.4607 37.2643C48.2882 37.3219 48.2307 37.2643 48.2307 37.0918C48.2882 36.7467 48.4607 36.4591 48.6908 36.229C49.2965 35.3902 50.1371 34.7498 51.1065 34.3885L52.0268 34.2734ZM38.1076 35.0787C38.7403 35.0787 39.3155 35.1937 39.8907 35.3087C40.6959 35.5388 41.5012 35.7689 42.1914 36.3441C42.3639 36.5166 42.6515 36.6892 42.709 36.9192C42.709 37.0343 42.709 37.0918 42.594 37.0918L41.9613 36.8042C41.3861 36.5166 40.6959 36.3441 40.0057 36.229C39.8907 36.7467 39.7756 37.2643 39.4305 37.7245C39.2005 37.9545 38.9129 38.0696 38.5678 38.0696C38.1076 38.0121 37.6475 37.782 37.3599 37.4369C37.0723 37.0343 37.0148 36.6316 36.9573 36.114L36.152 36.3441C35.9795 36.4016 35.8069 36.4591 35.6344 36.4016C35.3468 36.3441 35.2318 36.0565 35.2893 35.7689C35.3468 35.5388 35.5769 35.4238 35.8069 35.3663C36.4971 35.0787 37.3599 35.0212 38.1076 35.0787Z" fill="#262626"/>
<path d="M40.2941 28.5791C41.2143 28.6366 42.1921 28.9817 42.9399 29.5569C43.1124 29.7294 43.3425 29.8444 43.4 30.0745C43.4575 30.1895 43.3425 30.3621 43.2274 30.3046C42.7673 30.2471 42.3647 30.017 41.9045 29.902C41.5019 29.7294 41.0418 29.6144 40.5816 29.6144C40.179 29.5569 39.7189 29.6144 39.3163 29.6719C38.4535 29.7869 37.5907 30.1895 36.843 30.5922L35.6352 31.1098L35.5776 31.0523C35.6352 30.8222 35.7502 30.5346 35.9227 30.3621C36.2678 29.7869 36.9005 29.4418 37.4757 29.1542C38.3385 28.7516 39.3163 28.5215 40.2941 28.5791ZM51.4524 28.8091C51.74 28.9242 52.0851 29.0967 52.3152 29.3843C52.5452 29.6144 52.6028 29.902 52.5452 30.2471L51.2223 29.8444C50.8197 29.7294 50.4746 29.7869 50.072 29.7294C49.6694 29.7294 49.2092 29.7869 48.8641 30.017L48.1164 30.4771H47.9439C47.8863 30.3046 47.9439 30.132 48.0589 30.017C48.3465 29.4993 48.8066 29.1542 49.3243 28.9817C50.0145 28.7516 50.7047 28.6366 51.4524 28.8091Z" fill="#262626"/>
<path d="M47.4253 41.6328V41.6903C47.1953 42.1505 46.7926 42.5531 46.275 42.7256C46.1024 42.7832 45.8724 42.7832 45.7573 42.6681V42.4381C46.1599 42.1505 46.6776 41.9204 47.1377 41.7478L47.4253 41.6328Z" fill="#262626"/>
<path fill-rule="evenodd" clip-rule="evenodd" d="M39.3738 43.6428L38.5685 43.4128H38.511C38.396 43.3553 38.2234 43.3553 38.1659 43.4703C38.1084 43.5278 38.1659 43.6428 38.2234 43.6428L38.5685 43.8154L38.6836 43.8729C40.0061 44.5409 41.4215 45.0062 42.8823 45.2533C42.8823 45.656 42.9974 46.0586 43.285 46.4037C43.5725 46.8063 43.9752 47.1514 44.4928 47.324C45.068 47.554 45.7007 47.4965 46.2759 47.2664C46.851 47.0364 47.3112 46.5762 47.5412 46.0011C47.6563 45.771 47.6563 45.4834 47.6563 45.2533L48.6916 44.9082V44.8507L48.8066 44.7357C48.2506 44.7303 47.6946 44.7303 47.1386 44.7357C45.4869 44.8794 43.8234 44.802 42.1921 44.5056L39.949 43.8729L39.8339 43.8154L39.3738 43.6428ZM43.3425 45.3109C43.4 45.886 43.8601 46.3462 44.3778 46.6337C45.068 47.1514 46.2183 46.9213 46.6785 46.1736C46.851 45.9435 46.9085 45.656 46.9661 45.3684V45.3109L45.4706 45.4259L45.5281 45.4834C45.5281 45.656 45.5856 45.771 45.4706 45.9435C45.3556 46.1161 45.1255 46.1161 45.068 45.9435C44.953 45.771 44.953 45.5984 45.0105 45.4259C44.5316 45.3817 44.0523 45.3434 43.5725 45.3109H43.3425Z" fill="#262626"/>
<path d="M37.6486 17.9922H39.9493C42.7676 18.1072 45.5285 18.6249 48.2318 19.2576C49.8423 19.6602 51.3377 20.1778 52.7756 20.9831C53.5234 21.4432 54.3286 22.0184 54.9038 22.7086C55.594 23.4563 56.0541 24.3766 56.2267 25.3544C56.4567 26.5623 56.4567 27.8276 56.0541 29.0355C55.7665 29.8983 55.2489 30.761 54.5012 31.3362C53.4658 32.199 52.143 32.7741 50.8201 32.8317C50.705 32.8892 50.59 32.8317 50.59 32.6591L51.0501 31.7388C50.4337 32.3429 49.6855 32.7957 48.8645 33.0617C48.6344 33.1192 48.2893 33.1768 48.0592 33.0617V32.7741C48.0592 31.9114 48.0017 31.1061 47.7716 30.3009C47.5991 29.3806 47.1389 28.6329 46.7363 27.8276C46.8514 28.6904 46.7938 29.6107 46.6213 30.4734C46.4487 31.2787 46.1036 31.9689 45.5285 32.5441C45.4134 32.7741 45.1258 32.8317 44.8958 32.7166L44.7807 32.314C44.6657 31.6813 44.3781 31.1061 44.0905 30.531C43.5729 29.3806 42.8251 28.4028 41.9624 27.4825C40.703 26.2235 39.2208 25.2093 37.5911 24.4916C37.6757 26.5025 37.4821 28.5155 37.0159 30.4734C36.7858 31.2787 36.4407 32.0839 35.9231 32.7741C35.7505 33.0042 35.5204 33.3493 35.2329 33.4643H34.8302C34.8878 32.7741 34.8878 32.0839 34.7727 31.3937C34.6577 30.761 34.4851 30.0708 34.1975 29.4956C34.025 30.531 33.4498 31.3937 32.7596 32.199C32.242 32.6591 31.7243 33.1192 31.0916 33.4643V37.3755L31.1491 39.101C31.1491 39.2736 30.9766 39.5612 30.804 39.6187C30.5164 39.5612 30.2864 39.4461 30.0563 39.2736C29.3661 38.8135 28.7334 38.2958 28.1582 37.6631C27.2143 36.6155 26.4931 35.387 26.0383 34.0523C25.5835 32.7175 25.4046 31.3043 25.5124 29.8983C25.7045 27.4225 26.6111 25.0557 28.1221 23.0852C29.6332 21.1147 31.6838 19.6252 34.025 18.7974C35.1753 18.3373 36.3832 18.0497 37.6486 17.9922Z" fill="#262626"/>
</g>
</svg>
