<svg width="81" height="80" viewBox="0 0 81 80" fill="none" xmlns="http://www.w3.org/2000/svg">
<rect x="1.16663" y="0.5" width="79" height="79" rx="39.5" fill="#FFF5F0"/>
<rect x="1.16663" y="0.5" width="79" height="79" rx="39.5" stroke="#333333"/>
<mask id="mask0_57_6957" style="mask-type:luminance" maskUnits="userSpaceOnUse" x="12" y="11" width="57" height="58">
<path d="M68.7953 11.875H12.4283V68.242H68.7953V11.875Z" fill="white"/>
</mask>
<g mask="url(#mask0_57_6957)">
<path fill-rule="evenodd" clip-rule="evenodd" d="M44.7899 15.1425C44.4448 14.5674 43.9271 14.0497 43.1794 13.9922L43.4095 14.3373L43.5245 14.5674L43.9271 15.3151L44.0422 15.4301C44.3298 16.1203 44.5023 16.8105 44.5598 17.5583C44.5598 17.9609 44.4448 18.306 44.3298 18.7086C44.1572 17.7308 43.6395 16.9831 43.0644 16.2929C42.4539 15.668 41.7053 15.1951 40.8787 14.9125C39.7455 14.4621 38.5033 14.362 37.3126 14.6249C36.8525 14.6824 36.4499 14.9125 35.9897 15.1425C35.5871 15.3726 35.242 15.7177 34.8969 16.0053C34.0614 16.8359 33.4142 17.8362 32.9988 18.9387C32.6537 19.8014 32.2511 20.6642 31.7335 21.4694C31.3308 22.1596 30.7557 22.7923 30.1805 23.31L28.57 24.4028C27.6243 24.9977 26.7033 25.631 25.8092 26.3009C24.4863 27.4512 23.5085 29.0042 22.9908 30.7297C22.7608 31.5925 22.5882 32.5128 22.7032 33.3755C22.8183 33.8357 22.9333 34.2383 23.1634 34.6409V35.101C22.9333 36.1939 22.8758 37.3442 23.2209 38.437C23.5995 39.7272 24.2463 40.9228 25.119 41.9456L25.9242 43.0384C26.2693 43.6136 26.5569 44.2463 26.6144 44.9365C26.6144 45.4542 26.4419 45.9143 26.0392 46.2594C25.7297 46.5313 25.3513 46.7127 24.9454 46.7838C24.5396 46.8548 24.122 46.8127 23.7386 46.662L23.451 46.4895L23.2209 46.3744L23.1634 46.4895C23.1059 46.547 23.0483 46.662 23.1059 46.7771L23.5085 47.5248C23.8536 47.9849 24.2562 48.33 24.7739 48.5601C25.1765 48.7902 25.6366 48.8477 26.0968 48.7326C26.3843 48.6751 26.6144 48.5601 26.8445 48.3875C26.8445 48.9627 27.017 49.5379 27.1896 50.0555C27.4197 50.6882 27.7648 51.3209 28.2824 51.7811C28.7426 52.2412 29.3177 52.4713 29.8929 52.6438C30.4106 52.8164 30.9282 52.8164 31.4459 52.7013C31.5609 52.6438 31.5609 52.5863 31.5609 52.4713L31.3884 52.0686L31.3308 51.9536L30.8707 50.8033C31.906 51.551 33.1139 51.8961 34.3793 52.0111C35.1845 52.0686 36.0473 51.9536 36.795 51.666C36.9675 51.6085 37.1976 51.4935 37.2551 51.3209C37.3702 51.1484 37.2551 50.9758 37.1976 50.8033L36.9675 49.9405L36.91 49.768C37.4277 50.1131 37.9453 50.3431 38.578 50.3431C39.2682 50.3431 40.016 50.0555 40.4186 49.4804L40.5911 49.4228C40.3034 46.8858 39.7046 44.3938 38.8081 42.0031C38.4192 40.9651 37.938 39.9641 37.3702 39.0122L37.2551 38.6671C37.2551 37.8044 37.1401 36.8266 36.6224 36.1364C37.0251 35.5037 37.0826 34.6984 37.1401 34.0082C37.1401 33.433 37.1401 32.8579 36.8525 32.3402L37.0826 32.2827L37.5427 32.2252C37.6577 32.1677 37.7153 31.9951 37.7728 31.8801C38.1579 30.2816 38.7374 28.7363 39.4983 27.2787L39.9009 26.4734C40.016 26.3009 40.016 26.1283 40.0735 25.8983V25.6682L39.9584 24.863L39.9009 24.3453L41.0513 24.6904H41.6264C44.5334 24.19 47.4974 24.1125 50.4266 24.4603L50.8292 24.5754L51.1168 24.6904C51.2318 24.6904 51.4044 24.6329 51.4619 24.5179C51.6344 24.3453 51.692 24.1152 51.7495 23.8852L51.922 24.0002L52.4397 24.4028L52.8423 24.6329C53.1077 24.6825 53.3778 24.7018 53.6476 24.6904L54.5678 25.6107L54.6253 25.6682C55.8374 27.0541 56.8801 28.5795 57.7313 30.2121C57.9614 30.3846 58.2489 30.2696 58.364 30.0395C58.7666 29.1192 58.8241 28.0839 58.6516 27.1061C58.332 25.6456 57.5686 24.3196 56.4659 23.31C56.1208 22.9074 55.6607 22.5623 55.2005 22.2172L52.7848 20.9518C51.5769 20.4341 50.3116 20.0315 49.0462 19.8014C47.6082 19.5138 46.1703 19.5138 44.6749 19.5714C45.3075 18.9387 45.4801 18.0759 45.4801 17.2132C45.4801 16.4654 45.1925 15.7752 44.7899 15.1425ZM29.9504 25.3806C30.6406 24.5754 31.3308 23.7701 31.8485 22.7923L30.9282 23.7701C30.353 24.2878 29.7204 24.6329 29.0877 25.0355L28.455 25.4381L28.2824 25.4956C27.5347 25.9558 26.7295 26.4734 26.0968 27.0486C24.8314 28.1414 23.9686 29.6369 23.566 31.2474C23.3934 32.1101 23.2784 33.0304 23.5085 33.8932C23.8536 32.8579 24.3712 31.8226 24.9464 30.9023C25.6941 29.7519 26.6144 28.6591 27.5922 27.6813L28.685 26.5885L29.9504 25.3806Z" fill="#262626"/>
<path d="M46.4577 20.3781C48.0682 20.4356 49.6787 20.7232 51.2892 21.2408C53.5405 21.8764 55.5461 23.18 57.0409 24.9794C58.1338 26.4174 58.824 28.1429 59.054 29.9259C59.3645 31.8474 59.4032 33.8029 59.1691 35.7352L58.8815 37.6908L58.6514 38.8411C58.5939 38.9562 58.5939 38.9562 58.4789 38.9562C58.3638 38.7261 58.3638 38.496 58.3638 38.2659C58.3063 37.4032 58.4213 36.5979 58.4789 35.7352C58.5364 34.3548 58.6514 32.9744 58.5364 31.5939L58.1913 29.0057C57.7887 27.3952 57.0409 25.8997 55.8906 24.6919C54.8553 23.6566 53.5899 22.7938 52.267 22.2186C51.0016 21.701 49.7362 21.3559 48.4133 21.1258C47.378 20.9532 46.3427 20.8957 45.3074 20.8957C42.7551 20.8539 40.2302 21.426 37.9452 22.5637C37.1975 23.0814 36.5072 23.7141 35.9321 24.4043C34.1622 26.7275 33.0676 29.494 32.7686 32.3992C32.7111 33.7796 32.7686 35.1025 33.2288 36.4254L33.6314 37.2882L34.3216 37.3457L34.3791 37.5182C34.2066 37.6333 33.9765 37.6333 33.7464 37.6908C33.1712 37.8058 32.5961 38.0359 32.0784 38.381C31.6758 38.6686 31.2732 39.0137 31.0431 39.4738C30.7555 40.049 30.8706 40.7392 30.9856 41.3719C31.2732 42.4647 31.9634 43.5 32.8837 44.1902C33.5163 44.7079 34.3216 44.9955 35.1268 45.1105C35.702 45.2255 36.2772 45.1105 36.8524 45.053C37.1399 45.2831 37.3125 45.7432 37.485 46.0308L38.5204 47.5838C39.4561 48.9136 40.783 49.9189 42.3165 50.4596C43.5819 50.9773 44.9048 51.2649 46.2277 51.5524L48.5859 52.0126L49.5637 52.3002V52.5302H48.8735C47.5805 52.4581 46.2934 52.3044 45.0198 52.0701C43.3093 51.7297 41.6732 51.0869 40.1884 50.172C39.5557 49.7694 38.9805 49.2518 38.5204 48.6191C38.9187 51.0164 38.5985 53.478 37.6001 55.6937C36.7373 57.2467 35.2994 58.4545 33.5739 58.9722C33.4013 59.0297 33.1712 59.0872 32.9987 59.0297C32.8837 59.0297 32.8837 58.9722 32.8837 58.8571C32.9412 58.6846 33.1137 58.5696 33.2288 58.512C33.919 58.0519 34.7242 57.7068 35.4144 57.1891C36.1621 56.5564 36.7948 55.8662 37.1975 55.0035C37.5426 54.1407 37.7726 53.1629 37.8877 52.1851C38.0027 51.4374 38.0602 50.6897 38.0027 49.8844L37.7726 47.6988L36.7373 45.6282L35.6445 45.8582C34.8002 45.8828 33.9631 45.6957 33.2097 45.3139C32.4562 44.9322 31.8103 44.3679 31.3307 43.6726C30.5809 42.7227 30.1754 41.5467 30.1803 40.3366C30.1803 39.8189 30.3529 39.3013 30.6405 38.8986C30.9281 38.496 31.3307 38.1509 31.7333 37.9208C32.0209 37.6908 32.4235 37.5757 32.7686 37.4607L32.251 36.0803C31.9634 34.8149 31.9634 33.492 32.1359 32.2266C32.5126 29.0857 33.7687 26.115 35.7595 23.6566C36.2772 23.0814 36.7948 22.5637 37.4275 22.1611C37.8301 21.931 38.2328 21.8735 38.5779 21.6434C41.0511 20.5506 43.7544 20.2055 46.4577 20.3781Z" fill="#262626"/>
<path d="M45.3067 20.8942C47.6966 20.8053 50.0757 21.2575 52.2663 22.2171C53.5892 22.7922 54.8546 23.655 55.8899 24.6903C57.0403 25.8982 57.788 27.3936 58.1906 29.0041L58.5357 31.5924C58.6507 32.9728 58.5357 34.3532 58.4782 35.7336C58.4207 36.5964 58.3056 37.4016 58.3632 38.2644C58.3632 38.4944 58.3632 38.7245 58.4782 38.9546L58.4207 40.1049C58.3056 40.3925 58.3056 40.6801 58.3056 41.0252C58.1906 42.4056 58.1906 43.8436 57.9605 45.2815C57.903 45.9717 57.788 46.7194 57.5004 47.3521C57.3278 47.8698 57.0403 48.3299 56.6376 48.7325C55.9474 49.4803 55.0847 50.1129 54.1644 50.6306C53.0716 51.2633 51.9212 51.5509 50.8284 52.011C50.5408 52.126 50.2532 52.2411 50.0807 52.4712C50.5408 52.5287 50.9434 52.4712 51.4036 52.3561C51.116 53.0463 51.0585 53.7365 51.0585 54.4267C51.0585 54.7143 51.0009 55.0594 51.116 55.347C51.2885 55.6346 51.5761 55.8647 51.8637 56.0372L53.8768 56.785C55.1422 57.2451 56.35 57.8203 57.6154 58.3379C57.7305 58.568 57.903 58.7405 57.9605 59.0281C58.3056 59.6608 58.3632 60.351 58.1331 61.0412C57.8455 61.789 57.2703 62.4216 56.5801 62.8243C55.6598 63.457 54.5095 63.9171 53.4167 64.2047C48.9444 65.1602 44.3076 65.0221 39.9001 63.8021C38.7498 63.3994 37.5994 62.9968 36.5641 62.4216C35.7589 61.9615 34.8961 61.3863 34.2634 60.6386C33.9183 60.1785 33.6307 59.5458 33.5732 58.9706C34.92 58.5595 36.112 57.7527 36.9942 56.6552C37.8763 55.5576 38.4079 54.22 38.5197 52.8163C38.7498 51.4358 38.7498 49.9979 38.5197 48.6175C38.9798 49.2502 39.555 49.7678 40.1877 50.1705L41.7407 50.9757C43.9956 51.9485 46.4175 52.4759 48.8728 52.5287H49.563V52.2986L48.5852 52.011L46.227 51.5509C44.9041 51.2633 43.5812 50.9757 42.3158 50.458C41.5681 50.1129 40.7629 49.7103 40.0726 49.2502C39.4975 48.7325 38.9798 48.2149 38.5197 47.5822L37.4844 46.0292C37.3118 45.7416 37.1393 45.2815 36.8517 45.0514C36.2765 45.1089 35.7013 45.224 35.1262 45.1089C34.3209 44.9939 33.5157 44.7063 32.883 44.1887C31.9639 43.4776 31.2983 42.4893 30.9849 41.3703C30.8699 40.7376 30.7548 40.0474 31.0424 39.4722C31.2725 39.0121 31.6751 38.667 32.0777 38.3794C32.5954 38.0343 33.1706 37.8042 33.7457 37.6892C33.9758 37.6317 34.2059 37.6317 34.3784 37.5167L34.3209 37.3441L33.6307 37.2866L33.2281 36.4238C32.768 35.1009 32.7104 33.778 32.8255 32.3976C33.1076 29.4981 34.1821 26.7322 35.9314 24.4027C36.5066 23.7125 37.1968 23.0798 37.9445 22.5622C40.2246 21.4045 42.7497 20.8127 45.3067 20.8366V20.8942Z" fill="#FFDECC"/>
<path d="M32.942 39.7578C33.1721 39.7578 33.3446 39.7578 33.5747 39.8728C33.8623 39.9304 34.2074 40.1029 34.3799 40.333C34.495 40.5055 34.495 40.7356 34.3799 40.9082C34.0924 41.2533 33.6897 41.4833 33.4597 41.8284C33.8048 42.0585 34.2649 42.1735 34.6675 42.3461C34.8976 42.4036 35.1277 42.5186 35.3002 42.6912L35.3577 42.8637L34.8976 42.7487L33.5172 42.3461C33.2871 42.2886 33.0571 42.1735 32.9995 41.9435C32.942 41.7709 33.0571 41.5408 33.1721 41.3683L34.0348 40.6206C33.8048 40.218 33.1721 40.1604 32.942 39.7578ZM58.4222 40.1029L58.5372 40.2755L58.6523 41.1957C58.7716 42.902 58.7331 44.6156 58.5372 46.3148C58.4222 46.9475 58.2496 47.6377 57.962 48.2129C56.436 50.2095 54.2924 51.6453 51.8652 52.2966C51.8077 53.1018 51.6927 54.0796 51.7502 54.9999L52.0378 55.2875C52.4979 55.6326 53.0731 55.8051 53.5907 55.9777C54.9361 56.4072 56.2442 56.9458 57.5019 57.5882C57.9045 57.8182 58.2496 58.1058 58.5372 58.4509C58.2496 58.5085 57.962 58.3934 57.6169 58.3359C56.3516 57.8182 55.1437 57.2431 53.8783 56.7829L51.8652 56.0352C51.5776 55.8627 51.29 55.6326 51.1175 55.345C51.0025 55.0574 51.06 54.7123 51.06 54.4247C51.06 53.7345 51.1175 53.0443 51.4051 52.3541C50.9449 52.4691 50.5423 52.5267 50.0822 52.4691C50.2547 52.2391 50.5423 52.124 50.8299 52.009C51.9227 51.5489 53.0731 51.2613 54.1659 50.6286C55.0862 50.1109 55.9489 49.4782 56.6391 48.7305C57.0418 48.3279 57.3294 47.8678 57.5019 47.3501C57.7895 46.7174 57.9045 45.9697 57.962 45.2795C58.1921 43.8415 58.1921 42.4036 58.3071 41.0232C58.3071 40.6781 58.3071 40.3905 58.4222 40.1029Z" fill="#262626"/>
<path d="M56.4653 34.1238C56.9254 34.0662 57.3856 34.1813 57.7307 34.4689C57.9032 34.6414 58.0758 34.8715 58.0758 35.1015C58.1333 35.3891 57.8457 35.6767 57.5581 35.6767C57.3281 35.6192 57.213 35.5042 57.098 35.3316L56.5228 34.929C57.0405 35.8493 56.7529 37.1147 55.9477 37.7473C55.545 38.0924 54.9123 38.2075 54.5097 37.8049C54.1646 37.5173 54.0496 37.1147 54.0496 36.6545C53.9345 36.9421 53.762 37.1722 53.7045 37.4598C53.647 37.5748 53.647 37.6898 53.5319 37.6898C53.4169 37.4022 53.4744 37.0571 53.5894 36.712C53.9345 35.7918 54.5672 34.9865 55.43 34.5264C55.7176 34.2963 56.0627 34.1813 56.4653 34.1238ZM44.2716 34.7564C45.8246 34.814 47.3201 35.7918 47.9527 37.1722C48.0678 37.2872 48.1828 37.5173 48.0103 37.6898C47.8377 37.6898 47.7227 37.4598 47.6076 37.3447C47.3776 36.8846 47.0325 36.5395 46.6298 36.2519C46.7449 36.8846 46.7449 37.4598 46.3998 38.0349C46.1122 38.4951 45.4795 38.7827 44.9618 38.7251C44.5592 38.6101 44.1566 38.4376 43.869 38.0924C43.5239 37.7473 43.4089 37.1722 43.4089 36.712C43.4089 36.3094 43.5814 35.9643 43.754 35.6767C42.9487 35.8493 42.1435 36.1944 41.5108 36.712C41.3383 36.7696 41.2232 36.8846 41.0507 36.8846C40.8206 36.8271 40.7056 36.6545 40.7056 36.4244C40.7056 36.2519 40.8206 36.0793 40.9356 35.9643C41.3958 35.6192 41.8559 35.2741 42.4311 35.044C43.0063 34.814 43.6389 34.6989 44.2716 34.7564Z" fill="#262626"/>
<path d="M44.8481 28.6003C45.7108 28.6578 46.6886 28.8879 47.3788 29.463C47.6089 29.6356 47.839 29.8657 47.8965 30.0957C47.954 30.2683 47.954 30.3833 47.7815 30.4408C47.6089 30.4408 47.4364 30.2683 47.3213 30.1532C46.6886 29.6931 45.9409 29.4055 45.1357 29.4055C44.6755 29.4055 44.2729 29.5206 43.8128 29.6356C42.95 29.8081 42.1448 30.2683 41.6271 30.9585C41.4546 31.131 41.3395 31.3611 41.0519 31.4186C40.7643 31.4761 40.4768 31.2461 40.4768 30.9585C40.4192 30.7284 40.5918 30.4984 40.7068 30.3258C41.397 29.463 42.4323 28.8879 43.5252 28.6578C43.9278 28.5428 44.3879 28.5428 44.8481 28.6003ZM56.6391 29.1755C56.9267 29.2905 57.2143 29.5781 57.3868 29.8081C57.5594 29.9807 57.6744 30.2108 57.6744 30.4408C57.6744 30.7859 57.3293 31.016 56.9842 30.901C56.6966 30.7859 56.6391 30.4984 56.4091 30.2683C56.179 30.0957 55.8914 29.8657 55.6613 29.8081C54.9711 29.5781 54.2809 29.8657 53.8208 30.3258L53.3031 30.8435C53.3031 30.4408 53.5332 30.0957 53.8208 29.8657C54.511 29.1179 55.6613 28.8303 56.6391 29.1755Z" fill="#262626"/>
<path d="M52.8995 41.7734C52.8995 41.946 52.7844 42.1185 52.6694 42.2911C52.4393 42.6362 52.0367 42.8663 51.6341 42.9813C51.3465 43.0388 51.1164 42.8663 50.8863 42.9813C50.6563 42.9813 50.4262 43.0388 50.1961 42.9238C50.0811 42.8663 50.0811 42.6937 50.1961 42.5787C50.3687 42.3486 50.6563 42.1761 50.8863 42.1761C51.1164 42.1185 51.289 42.1185 51.4615 42.2911L51.519 42.6937C51.8066 42.5787 51.9217 42.4061 52.1517 42.2336L52.8995 41.7734Z" fill="#262626"/>
<path d="M45.3647 44.875C45.5372 44.875 45.6522 44.99 45.7673 45.1051L46.515 45.5077C47.1477 45.7953 47.8379 45.9678 48.4706 46.1404C49.3334 46.428 50.1961 46.4855 51.0589 46.4855C51.7491 46.543 52.3818 46.6005 53.0145 46.543L53.2445 46.658C52.2092 47.1757 50.8863 47.2907 49.736 47.2332C48.4131 47.1757 47.0902 46.7731 45.9398 46.1979C45.5947 45.9678 45.1921 45.7378 45.1346 45.2776C45.0771 45.1051 45.1921 44.875 45.3647 44.875Z" fill="#262626"/>
<path d="M47.2056 19.5746C49.1348 19.6849 51.0267 20.153 52.7848 20.955C53.59 21.3576 54.4528 21.7602 55.2005 22.2779C55.6606 22.5655 56.1208 22.9106 56.4659 23.3132L57.7313 24.7511C57.2136 24.9812 56.696 24.9237 56.1783 24.8662C55.2005 24.7511 54.2227 24.6361 53.2449 24.6936L52.7848 24.6361L52.3822 24.3485L51.692 23.8884C51.692 24.1184 51.6344 24.291 51.5194 24.5211C51.4044 24.6361 51.2893 24.6936 51.1168 24.6936C50.8867 24.6361 50.7142 24.5211 50.4841 24.5211C47.5233 24.0847 44.5106 24.143 41.5689 24.6936H40.9362L39.9009 24.3485C39.9584 24.8662 40.131 25.3838 40.0735 25.844C40.0159 26.074 40.0159 26.3041 39.9009 26.4766C39.4983 27.2819 39.0381 28.0296 38.693 28.8924C38.2904 29.8702 37.9453 30.9055 37.7152 31.9408C37.7152 32.0558 37.6577 32.1709 37.5427 32.2284L36.8525 32.3434C37.1401 32.8611 37.1976 33.4938 37.1401 34.0689C37.0826 34.7591 36.9675 35.5644 36.6224 36.1395C37.025 36.6572 37.1976 37.3474 37.1976 38.0376C37.2551 39.1304 37.1976 40.1658 36.795 41.2011C36.6799 41.4311 36.5074 41.7187 36.2198 41.8338C36.1623 41.8913 35.9897 41.8913 35.9897 41.7762C35.8747 41.5462 35.8747 41.2586 35.8172 41.0285C35.7021 40.1658 35.2995 39.3605 34.6668 38.7278C34.2067 38.3252 33.689 37.9226 33.1714 37.635C32.8263 37.52 32.5387 37.4049 32.2511 37.1749L31.906 36.7147C31.2158 34.8742 30.9857 32.8611 31.2158 30.9055C31.4603 28.6135 32.1855 26.3988 33.3439 24.406C33.9191 23.4857 34.6093 22.6805 35.357 21.9328C35.9322 21.4151 36.5074 20.955 37.1401 20.6099L37.9453 20.3223L39.7859 19.6896L40.8787 19.5746H43.3519C44.6748 19.5746 45.8827 19.4595 47.2056 19.5746Z" fill="#262626"/>
</g>
</svg>
