<svg width="778" height="155" viewBox="0 0 778 155" fill="none" xmlns="http://www.w3.org/2000/svg">
<g filter="url(#filter0_d_57_328)">
<rect x="2" y="2.5" width="765" height="141" rx="12" fill="#FFEFE6"/>
<rect x="1" y="1.5" width="767" height="143" rx="13" stroke="#262626" stroke-width="2"/>
<path d="M54.068 63.884V57.68H75.056V63.884H54.068ZM61.416 49.716H67.752V71.76H61.416V49.716ZM81.8887 75.5L92.0967 48.616H99.7087L89.9407 75.5H81.8887ZM77.8407 50.86V44.304H99.7087V48.616L97.3327 50.86H77.8407ZM114.867 75.984C112.256 75.984 109.924 75.3093 107.871 73.96C105.818 72.5813 104.19 70.6747 102.987 68.24C101.814 65.8053 101.227 63.004 101.227 59.836C101.227 56.6973 101.814 53.9253 102.987 51.52C104.16 49.0853 105.759 47.1933 107.783 45.844C109.836 44.4653 112.154 43.776 114.735 43.776C117.375 43.776 119.722 44.4653 121.775 45.844C123.828 47.1933 125.442 49.0853 126.615 51.52C127.788 53.9253 128.375 56.7267 128.375 59.924C128.375 63.092 127.788 65.8933 126.615 68.328C125.442 70.7333 123.828 72.6107 121.775 73.96C119.751 75.3093 117.448 75.984 114.867 75.984ZM114.779 69.208C115.982 69.208 117.008 68.856 117.859 68.152C118.71 67.4187 119.355 66.3627 119.795 64.984C120.264 63.6053 120.499 61.904 120.499 59.88C120.499 57.8853 120.264 56.1987 119.795 54.82C119.355 53.4413 118.71 52.4 117.859 51.696C117.008 50.9627 115.967 50.596 114.735 50.596C113.591 50.596 112.594 50.948 111.743 51.652C110.892 52.356 110.232 53.3973 109.763 54.776C109.323 56.1547 109.103 57.8413 109.103 59.836C109.103 61.86 109.323 63.576 109.763 64.984C110.232 66.3627 110.892 67.4187 111.743 68.152C112.594 68.856 113.606 69.208 114.779 69.208ZM144.387 75.984C141.776 75.984 139.444 75.3093 137.391 73.96C135.337 72.5813 133.709 70.6747 132.507 68.24C131.333 65.8053 130.747 63.004 130.747 59.836C130.747 56.6973 131.333 53.9253 132.507 51.52C133.68 49.0853 135.279 47.1933 137.303 45.844C139.356 44.4653 141.673 43.776 144.255 43.776C146.895 43.776 149.241 44.4653 151.295 45.844C153.348 47.1933 154.961 49.0853 156.135 51.52C157.308 53.9253 157.895 56.7267 157.895 59.924C157.895 63.092 157.308 65.8933 156.135 68.328C154.961 70.7333 153.348 72.6107 151.295 73.96C149.271 75.3093 146.968 75.984 144.387 75.984ZM144.299 69.208C145.501 69.208 146.528 68.856 147.379 68.152C148.229 67.4187 148.875 66.3627 149.315 64.984C149.784 63.6053 150.019 61.904 150.019 59.88C150.019 57.8853 149.784 56.1987 149.315 54.82C148.875 53.4413 148.229 52.4 147.379 51.696C146.528 50.9627 145.487 50.596 144.255 50.596C143.111 50.596 142.113 50.948 141.263 51.652C140.412 52.356 139.752 53.3973 139.283 54.776C138.843 56.1547 138.623 57.8413 138.623 59.836C138.623 61.86 138.843 63.576 139.283 64.984C139.752 66.3627 140.412 67.4187 141.263 68.152C142.113 68.856 143.125 69.208 144.299 69.208ZM173.906 75.984C171.295 75.984 168.963 75.3093 166.91 73.96C164.857 72.5813 163.229 70.6747 162.026 68.24C160.853 65.8053 160.266 63.004 160.266 59.836C160.266 56.6973 160.853 53.9253 162.026 51.52C163.199 49.0853 164.798 47.1933 166.822 45.844C168.875 44.4653 171.193 43.776 173.774 43.776C176.414 43.776 178.761 44.4653 180.814 45.844C182.867 47.1933 184.481 49.0853 185.654 51.52C186.827 53.9253 187.414 56.7267 187.414 59.924C187.414 63.092 186.827 65.8933 185.654 68.328C184.481 70.7333 182.867 72.6107 180.814 73.96C178.79 75.3093 176.487 75.984 173.906 75.984ZM173.818 69.208C175.021 69.208 176.047 68.856 176.898 68.152C177.749 67.4187 178.394 66.3627 178.834 64.984C179.303 63.6053 179.538 61.904 179.538 59.88C179.538 57.8853 179.303 56.1987 178.834 54.82C178.394 53.4413 177.749 52.4 176.898 51.696C176.047 50.9627 175.006 50.596 173.774 50.596C172.63 50.596 171.633 50.948 170.782 51.652C169.931 52.356 169.271 53.3973 168.802 54.776C168.362 56.1547 168.142 57.8413 168.142 59.836C168.142 61.86 168.362 63.576 168.802 64.984C169.271 66.3627 169.931 67.4187 170.782 68.152C171.633 68.856 172.645 69.208 173.818 69.208Z" fill="#262626"/>
<path d="M56.878 112.68C55.882 112.68 55.036 112.5 54.34 112.14C53.644 111.78 53.02 111.252 52.468 110.556L53.872 109.152C54.22 109.656 54.634 110.052 55.114 110.34C55.594 110.616 56.206 110.754 56.95 110.754C57.646 110.754 58.198 110.61 58.606 110.322C59.026 110.034 59.236 109.638 59.236 109.134C59.236 108.714 59.128 108.372 58.912 108.108C58.696 107.844 58.408 107.628 58.048 107.46C57.7 107.28 57.31 107.124 56.878 106.992C56.458 106.848 56.032 106.692 55.6 106.524C55.18 106.344 54.79 106.122 54.43 105.858C54.082 105.594 53.8 105.252 53.584 104.832C53.368 104.412 53.26 103.878 53.26 103.23C53.26 102.486 53.44 101.856 53.8 101.34C54.172 100.812 54.67 100.41 55.294 100.134C55.918 99.858 56.614 99.72 57.382 99.72C58.21 99.72 58.948 99.882 59.596 100.206C60.256 100.53 60.79 100.944 61.198 101.448L59.794 102.852C59.434 102.444 59.056 102.144 58.66 101.952C58.276 101.748 57.832 101.646 57.328 101.646C56.704 101.646 56.212 101.772 55.852 102.024C55.504 102.276 55.33 102.63 55.33 103.086C55.33 103.47 55.438 103.782 55.654 104.022C55.87 104.25 56.152 104.448 56.5 104.616C56.86 104.772 57.25 104.922 57.67 105.066C58.102 105.21 58.528 105.372 58.948 105.552C59.38 105.732 59.77 105.966 60.118 106.254C60.478 106.53 60.766 106.89 60.982 107.334C61.198 107.778 61.306 108.336 61.306 109.008C61.306 110.136 60.904 111.03 60.1 111.69C59.308 112.35 58.234 112.68 56.878 112.68ZM64.414 112.5V100.26H66.394V112.5H64.414ZM62.344 105.66V103.86H68.464V105.66H62.344ZM73.4487 112.68C72.7167 112.68 72.0627 112.518 71.4867 112.194C70.9227 111.87 70.4787 111.426 70.1547 110.862C69.8427 110.286 69.6867 109.626 69.6867 108.882V103.86H71.6667V108.792C71.6667 109.212 71.7327 109.572 71.8647 109.872C72.0087 110.16 72.2127 110.382 72.4767 110.538C72.7527 110.694 73.0767 110.772 73.4487 110.772C74.0247 110.772 74.4627 110.604 74.7627 110.268C75.0747 109.92 75.2307 109.428 75.2307 108.792V103.86H77.2107V108.882C77.2107 109.638 77.0487 110.304 76.7247 110.88C76.4127 111.444 75.9747 111.888 75.4107 112.212C74.8467 112.524 74.1927 112.68 73.4487 112.68ZM82.8195 112.68C82.0395 112.68 81.3315 112.482 80.6955 112.086C80.0715 111.69 79.5735 111.156 79.2015 110.484C78.8415 109.8 78.6615 109.038 78.6615 108.198C78.6615 107.346 78.8415 106.584 79.2015 105.912C79.5735 105.228 80.0715 104.688 80.6955 104.292C81.3315 103.884 82.0395 103.68 82.8195 103.68C83.4795 103.68 84.0615 103.824 84.5655 104.112C85.0815 104.388 85.4895 104.772 85.7895 105.264C86.0895 105.756 86.2395 106.314 86.2395 106.938V109.422C86.2395 110.046 86.0895 110.604 85.7895 111.096C85.5015 111.588 85.0995 111.978 84.5835 112.266C84.0675 112.542 83.4795 112.68 82.8195 112.68ZM83.1435 110.808C83.6355 110.808 84.0615 110.7 84.4215 110.484C84.7935 110.256 85.0815 109.944 85.2855 109.548C85.4895 109.152 85.5915 108.696 85.5915 108.18C85.5915 107.664 85.4895 107.208 85.2855 106.812C85.0815 106.416 84.7935 106.11 84.4215 105.894C84.0615 105.666 83.6355 105.552 83.1435 105.552C82.6635 105.552 82.2375 105.666 81.8655 105.894C81.5055 106.11 81.2175 106.416 81.0015 106.812C80.7975 107.208 80.6955 107.664 80.6955 108.18C80.6955 108.696 80.7975 109.152 81.0015 109.548C81.2175 109.944 81.5055 110.256 81.8655 110.484C82.2375 110.7 82.6635 110.808 83.1435 110.808ZM87.4455 112.5H85.4655V110.178L85.8075 108.072L85.4655 105.984V99.54H87.4455V112.5ZM93.6569 112.68C92.7929 112.68 92.0129 112.488 91.3169 112.104C90.6329 111.708 90.0869 111.168 89.6789 110.484C89.2829 109.8 89.0849 109.032 89.0849 108.18C89.0849 107.328 89.2829 106.566 89.6789 105.894C90.0749 105.21 90.6089 104.67 91.2809 104.274C91.9649 103.878 92.7209 103.68 93.5489 103.68C94.3529 103.68 95.0609 103.866 95.6729 104.238C96.2969 104.61 96.7829 105.12 97.1309 105.768C97.4909 106.416 97.6709 107.154 97.6709 107.982C97.6709 108.126 97.6589 108.276 97.6349 108.432C97.6229 108.576 97.5989 108.738 97.5629 108.918H90.4709V107.298H96.5369L95.7989 107.946C95.7749 107.418 95.6729 106.974 95.4929 106.614C95.3129 106.254 95.0549 105.978 94.7189 105.786C94.3949 105.594 93.9929 105.498 93.5129 105.498C93.0089 105.498 92.5709 105.606 92.1989 105.822C91.8269 106.038 91.5389 106.344 91.3349 106.74C91.1309 107.124 91.0289 107.586 91.0289 108.126C91.0289 108.666 91.1369 109.14 91.3529 109.548C91.5689 109.956 91.8749 110.274 92.2709 110.502C92.6669 110.718 93.1229 110.826 93.6389 110.826C94.0829 110.826 94.4909 110.748 94.8629 110.592C95.2469 110.436 95.5709 110.208 95.8349 109.908L97.0949 111.186C96.6749 111.678 96.1649 112.05 95.5649 112.302C94.9649 112.554 94.3289 112.68 93.6569 112.68ZM105.18 112.5V107.514C105.18 106.938 104.994 106.464 104.622 106.092C104.262 105.72 103.794 105.534 103.218 105.534C102.834 105.534 102.492 105.618 102.192 105.786C101.892 105.954 101.658 106.188 101.49 106.488C101.322 106.788 101.238 107.13 101.238 107.514L100.464 107.082C100.464 106.422 100.608 105.84 100.896 105.336C101.184 104.82 101.58 104.418 102.084 104.13C102.6 103.83 103.176 103.68 103.812 103.68C104.46 103.68 105.036 103.848 105.54 104.184C106.044 104.508 106.44 104.934 106.728 105.462C107.016 105.978 107.16 106.518 107.16 107.082V112.5H105.18ZM99.2582 112.5V103.86H101.238V112.5H99.2582ZM110.381 112.5V100.26H112.361V112.5H110.381ZM108.311 105.66V103.86H114.431V105.66H108.311ZM118.52 112.68C118.04 112.68 117.578 112.62 117.134 112.5C116.69 112.368 116.282 112.188 115.91 111.96C115.538 111.72 115.214 111.432 114.938 111.096L116.198 109.836C116.498 110.184 116.84 110.448 117.224 110.628C117.62 110.796 118.064 110.88 118.556 110.88C119 110.88 119.336 110.814 119.564 110.682C119.792 110.55 119.906 110.358 119.906 110.106C119.906 109.842 119.798 109.638 119.582 109.494C119.366 109.35 119.084 109.23 118.736 109.134C118.4 109.026 118.04 108.918 117.656 108.81C117.284 108.702 116.924 108.558 116.576 108.378C116.24 108.186 115.964 107.928 115.748 107.604C115.532 107.28 115.424 106.86 115.424 106.344C115.424 105.792 115.55 105.318 115.802 104.922C116.066 104.526 116.432 104.22 116.9 104.004C117.38 103.788 117.95 103.68 118.61 103.68C119.306 103.68 119.918 103.806 120.446 104.058C120.986 104.298 121.436 104.664 121.796 105.156L120.536 106.416C120.284 106.104 119.996 105.87 119.672 105.714C119.348 105.558 118.976 105.48 118.556 105.48C118.16 105.48 117.854 105.54 117.638 105.66C117.422 105.78 117.314 105.954 117.314 106.182C117.314 106.422 117.422 106.608 117.638 106.74C117.854 106.872 118.13 106.986 118.466 107.082C118.814 107.178 119.174 107.286 119.546 107.406C119.93 107.514 120.29 107.67 120.626 107.874C120.974 108.066 121.256 108.33 121.472 108.666C121.688 108.99 121.796 109.416 121.796 109.944C121.796 110.784 121.502 111.45 120.914 111.942C120.326 112.434 119.528 112.68 118.52 112.68ZM128.724 107.748V105.948H131.874C132.306 105.948 132.684 105.864 133.008 105.696C133.344 105.516 133.608 105.27 133.8 104.958C133.992 104.634 134.088 104.256 134.088 103.824C134.088 103.392 133.992 103.02 133.8 102.708C133.608 102.384 133.344 102.138 133.008 101.97C132.684 101.79 132.306 101.7 131.874 101.7H128.724V99.9H131.982C132.774 99.9 133.482 100.062 134.106 100.386C134.742 100.71 135.24 101.166 135.6 101.754C135.972 102.342 136.158 103.032 136.158 103.824C136.158 104.616 135.972 105.306 135.6 105.894C135.24 106.482 134.742 106.938 134.106 107.262C133.482 107.586 132.774 107.748 131.982 107.748H128.724ZM127.302 112.5V99.9H129.372V112.5H127.302ZM141.073 112.68C140.293 112.68 139.585 112.482 138.949 112.086C138.325 111.69 137.827 111.156 137.455 110.484C137.095 109.8 136.915 109.038 136.915 108.198C136.915 107.346 137.095 106.584 137.455 105.912C137.827 105.228 138.325 104.688 138.949 104.292C139.585 103.884 140.293 103.68 141.073 103.68C141.733 103.68 142.315 103.824 142.819 104.112C143.335 104.388 143.743 104.772 144.043 105.264C144.343 105.756 144.493 106.314 144.493 106.938V109.422C144.493 110.046 144.343 110.604 144.043 111.096C143.755 111.588 143.353 111.978 142.837 112.266C142.321 112.542 141.733 112.68 141.073 112.68ZM141.397 110.808C142.129 110.808 142.717 110.562 143.161 110.07C143.617 109.578 143.845 108.948 143.845 108.18C143.845 107.664 143.743 107.208 143.539 106.812C143.335 106.416 143.047 106.11 142.675 105.894C142.315 105.666 141.889 105.552 141.397 105.552C140.917 105.552 140.491 105.666 140.119 105.894C139.759 106.11 139.471 106.416 139.255 106.812C139.051 107.208 138.949 107.664 138.949 108.18C138.949 108.696 139.051 109.152 139.255 109.548C139.471 109.944 139.759 110.256 140.119 110.484C140.491 110.7 140.917 110.808 141.397 110.808ZM143.719 112.5V110.178L144.061 108.072L143.719 105.984V103.86H145.699V112.5H143.719ZM150.723 112.68C150.243 112.68 149.781 112.62 149.337 112.5C148.893 112.368 148.485 112.188 148.113 111.96C147.741 111.72 147.417 111.432 147.141 111.096L148.401 109.836C148.701 110.184 149.043 110.448 149.427 110.628C149.823 110.796 150.267 110.88 150.759 110.88C151.203 110.88 151.539 110.814 151.767 110.682C151.995 110.55 152.109 110.358 152.109 110.106C152.109 109.842 152.001 109.638 151.785 109.494C151.569 109.35 151.287 109.23 150.939 109.134C150.603 109.026 150.243 108.918 149.859 108.81C149.487 108.702 149.127 108.558 148.779 108.378C148.443 108.186 148.167 107.928 147.951 107.604C147.735 107.28 147.627 106.86 147.627 106.344C147.627 105.792 147.753 105.318 148.005 104.922C148.269 104.526 148.635 104.22 149.103 104.004C149.583 103.788 150.153 103.68 150.813 103.68C151.509 103.68 152.121 103.806 152.649 104.058C153.189 104.298 153.639 104.664 153.999 105.156L152.739 106.416C152.487 106.104 152.199 105.87 151.875 105.714C151.551 105.558 151.179 105.48 150.759 105.48C150.363 105.48 150.057 105.54 149.841 105.66C149.625 105.78 149.517 105.954 149.517 106.182C149.517 106.422 149.625 106.608 149.841 106.74C150.057 106.872 150.333 106.986 150.669 107.082C151.017 107.178 151.377 107.286 151.749 107.406C152.133 107.514 152.493 107.67 152.829 107.874C153.177 108.066 153.459 108.33 153.675 108.666C153.891 108.99 153.999 109.416 153.999 109.944C153.999 110.784 153.705 111.45 153.117 111.942C152.529 112.434 151.731 112.68 150.723 112.68ZM158.457 112.68C157.977 112.68 157.515 112.62 157.071 112.5C156.627 112.368 156.219 112.188 155.847 111.96C155.475 111.72 155.151 111.432 154.875 111.096L156.135 109.836C156.435 110.184 156.777 110.448 157.161 110.628C157.557 110.796 158.001 110.88 158.493 110.88C158.937 110.88 159.273 110.814 159.501 110.682C159.729 110.55 159.843 110.358 159.843 110.106C159.843 109.842 159.735 109.638 159.519 109.494C159.303 109.35 159.021 109.23 158.673 109.134C158.337 109.026 157.977 108.918 157.593 108.81C157.221 108.702 156.861 108.558 156.513 108.378C156.177 108.186 155.901 107.928 155.685 107.604C155.469 107.28 155.361 106.86 155.361 106.344C155.361 105.792 155.487 105.318 155.739 104.922C156.003 104.526 156.369 104.22 156.837 104.004C157.317 103.788 157.887 103.68 158.547 103.68C159.243 103.68 159.855 103.806 160.383 104.058C160.923 104.298 161.373 104.664 161.733 105.156L160.473 106.416C160.221 106.104 159.933 105.87 159.609 105.714C159.285 105.558 158.913 105.48 158.493 105.48C158.097 105.48 157.791 105.54 157.575 105.66C157.359 105.78 157.251 105.954 157.251 106.182C157.251 106.422 157.359 106.608 157.575 106.74C157.791 106.872 158.067 106.986 158.403 107.082C158.751 107.178 159.111 107.286 159.483 107.406C159.867 107.514 160.227 107.67 160.563 107.874C160.911 108.066 161.193 108.33 161.409 108.666C161.625 108.99 161.733 109.416 161.733 109.944C161.733 110.784 161.439 111.45 160.851 111.942C160.263 112.434 159.465 112.68 158.457 112.68ZM167.38 112.68C166.516 112.68 165.736 112.488 165.04 112.104C164.356 111.708 163.81 111.168 163.402 110.484C163.006 109.8 162.808 109.032 162.808 108.18C162.808 107.328 163.006 106.566 163.402 105.894C163.798 105.21 164.332 104.67 165.004 104.274C165.688 103.878 166.444 103.68 167.272 103.68C168.076 103.68 168.784 103.866 169.396 104.238C170.02 104.61 170.506 105.12 170.854 105.768C171.214 106.416 171.394 107.154 171.394 107.982C171.394 108.126 171.382 108.276 171.358 108.432C171.346 108.576 171.322 108.738 171.286 108.918H164.194V107.298H170.26L169.522 107.946C169.498 107.418 169.396 106.974 169.216 106.614C169.036 106.254 168.778 105.978 168.442 105.786C168.118 105.594 167.716 105.498 167.236 105.498C166.732 105.498 166.294 105.606 165.922 105.822C165.55 106.038 165.262 106.344 165.058 106.74C164.854 107.124 164.752 107.586 164.752 108.126C164.752 108.666 164.86 109.14 165.076 109.548C165.292 109.956 165.598 110.274 165.994 110.502C166.39 110.718 166.846 110.826 167.362 110.826C167.806 110.826 168.214 110.748 168.586 110.592C168.97 110.436 169.294 110.208 169.558 109.908L170.818 111.186C170.398 111.678 169.888 112.05 169.288 112.302C168.688 112.554 168.052 112.68 167.38 112.68ZM176.599 112.68C175.819 112.68 175.111 112.482 174.475 112.086C173.851 111.69 173.353 111.156 172.981 110.484C172.621 109.8 172.441 109.038 172.441 108.198C172.441 107.346 172.621 106.584 172.981 105.912C173.353 105.228 173.851 104.688 174.475 104.292C175.111 103.884 175.819 103.68 176.599 103.68C177.259 103.68 177.841 103.824 178.345 104.112C178.861 104.388 179.269 104.772 179.569 105.264C179.869 105.756 180.019 106.314 180.019 106.938V109.422C180.019 110.046 179.869 110.604 179.569 111.096C179.281 111.588 178.879 111.978 178.363 112.266C177.847 112.542 177.259 112.68 176.599 112.68ZM176.923 110.808C177.415 110.808 177.841 110.7 178.201 110.484C178.573 110.256 178.861 109.944 179.065 109.548C179.269 109.152 179.371 108.696 179.371 108.18C179.371 107.664 179.269 107.208 179.065 106.812C178.861 106.416 178.573 106.11 178.201 105.894C177.841 105.666 177.415 105.552 176.923 105.552C176.443 105.552 176.017 105.666 175.645 105.894C175.285 106.11 174.997 106.416 174.781 106.812C174.577 107.208 174.475 107.664 174.475 108.18C174.475 108.696 174.577 109.152 174.781 109.548C174.997 109.944 175.285 110.256 175.645 110.484C176.017 110.7 176.443 110.808 176.923 110.808ZM181.225 112.5H179.245V110.178L179.587 108.072L179.245 105.984V99.54H181.225V112.5ZM193.092 112.68C192.192 112.68 191.352 112.512 190.572 112.176C189.792 111.84 189.108 111.378 188.52 110.79C187.932 110.19 187.47 109.5 187.134 108.72C186.81 107.928 186.648 107.082 186.648 106.182C186.648 105.282 186.81 104.442 187.134 103.662C187.47 102.882 187.926 102.198 188.502 101.61C189.09 101.01 189.768 100.548 190.536 100.224C191.316 99.888 192.156 99.72 193.056 99.72C193.956 99.72 194.79 99.888 195.558 100.224C196.338 100.548 197.022 101.01 197.61 101.61C198.198 102.198 198.654 102.888 198.978 103.68C199.314 104.46 199.482 105.3 199.482 106.2C199.482 107.1 199.314 107.946 198.978 108.738C198.654 109.518 198.198 110.202 197.61 110.79C197.034 111.378 196.356 111.84 195.576 112.176C194.808 112.512 193.98 112.68 193.092 112.68ZM193.056 110.7C193.908 110.7 194.652 110.508 195.288 110.124C195.936 109.74 196.44 109.212 196.8 108.54C197.172 107.856 197.358 107.07 197.358 106.182C197.358 105.522 197.25 104.922 197.034 104.382C196.83 103.83 196.536 103.356 196.152 102.96C195.768 102.552 195.312 102.24 194.784 102.024C194.268 101.808 193.692 101.7 193.056 101.7C192.216 101.7 191.472 101.892 190.824 102.276C190.188 102.648 189.684 103.17 189.312 103.842C188.952 104.514 188.772 105.294 188.772 106.182C188.772 106.842 188.874 107.454 189.078 108.018C189.294 108.57 189.588 109.044 189.96 109.44C190.344 109.836 190.8 110.148 191.328 110.376C191.856 110.592 192.432 110.7 193.056 110.7ZM204.863 112.68C204.131 112.68 203.477 112.518 202.901 112.194C202.337 111.87 201.893 111.426 201.569 110.862C201.257 110.286 201.101 109.626 201.101 108.882V103.86H203.081V108.792C203.081 109.212 203.147 109.572 203.279 109.872C203.423 110.16 203.627 110.382 203.891 110.538C204.167 110.694 204.491 110.772 204.863 110.772C205.439 110.772 205.877 110.604 206.177 110.268C206.489 109.92 206.645 109.428 206.645 108.792V103.86H208.625V108.882C208.625 109.638 208.463 110.304 208.139 110.88C207.827 111.444 207.389 111.888 206.825 112.212C206.261 112.524 205.607 112.68 204.863 112.68ZM211.93 112.5V100.26H213.91V112.5H211.93ZM209.86 105.66V103.86H215.98V105.66H209.86Z" fill="#262626"/>
<path d="M280.068 63.884V57.68H301.056V63.884H280.068ZM287.416 49.716H293.752V71.76H287.416V49.716ZM314.401 75.984C312.201 75.984 310.177 75.6173 308.329 74.884C306.481 74.1213 304.911 73.0507 303.621 71.672L308.637 66.744C309.165 67.5067 309.942 68.1373 310.969 68.636C312.025 69.1053 313.125 69.34 314.269 69.34C315.237 69.34 316.087 69.1787 316.821 68.856C317.583 68.504 318.17 68.02 318.581 67.404C319.021 66.7587 319.241 65.996 319.241 65.116C319.241 64.236 319.021 63.488 318.581 62.872C318.141 62.2267 317.51 61.7427 316.689 61.42C315.897 61.0973 314.943 60.936 313.829 60.936C313.242 60.936 312.626 60.98 311.981 61.068C311.365 61.1267 310.866 61.2293 310.485 61.376L313.917 57.064C314.855 56.8293 315.706 56.6387 316.469 56.492C317.261 56.316 317.965 56.228 318.581 56.228C320.165 56.228 321.587 56.6093 322.849 57.372C324.11 58.1053 325.107 59.1613 325.841 60.54C326.574 61.8893 326.941 63.488 326.941 65.336C326.941 67.448 326.427 69.3107 325.401 70.924C324.374 72.508 322.907 73.7547 321.001 74.664C319.123 75.544 316.923 75.984 314.401 75.984ZM310.485 61.376V57.064L317.745 48.572H326.281L318.801 57.064L310.485 61.376ZM305.777 50.86V44.304H326.281V48.572L320.341 50.86H305.777ZM332.338 75.5L342.546 48.616H350.158L340.39 75.5H332.338ZM328.29 50.86V44.304H350.158V48.616L347.782 50.86H328.29Z" fill="#262626"/>
<path d="M278.432 112.5L283.616 99.9H285.056L290.204 112.5H287.972L283.94 102.294H284.696L280.628 112.5H278.432ZM280.988 110.07V108.27H287.666V110.07H280.988ZM293.255 112.5L289.781 103.86H291.833L294.173 110.142L293.561 110.16L295.847 103.86H296.999L299.285 110.16L298.673 110.142L301.013 103.86H303.065L299.591 112.5H298.439L296.099 106.524H296.747L294.407 112.5H293.255ZM307.712 112.68C306.932 112.68 306.224 112.482 305.588 112.086C304.964 111.69 304.466 111.156 304.094 110.484C303.734 109.8 303.554 109.038 303.554 108.198C303.554 107.346 303.734 106.584 304.094 105.912C304.466 105.228 304.964 104.688 305.588 104.292C306.224 103.884 306.932 103.68 307.712 103.68C308.372 103.68 308.954 103.824 309.458 104.112C309.974 104.388 310.382 104.772 310.682 105.264C310.982 105.756 311.132 106.314 311.132 106.938V109.422C311.132 110.046 310.982 110.604 310.682 111.096C310.394 111.588 309.992 111.978 309.476 112.266C308.96 112.542 308.372 112.68 307.712 112.68ZM308.036 110.808C308.768 110.808 309.356 110.562 309.8 110.07C310.256 109.578 310.484 108.948 310.484 108.18C310.484 107.664 310.382 107.208 310.178 106.812C309.974 106.416 309.686 106.11 309.314 105.894C308.954 105.666 308.528 105.552 308.036 105.552C307.556 105.552 307.13 105.666 306.758 105.894C306.398 106.11 306.11 106.416 305.894 106.812C305.69 107.208 305.588 107.664 305.588 108.18C305.588 108.696 305.69 109.152 305.894 109.548C306.11 109.944 306.398 110.256 306.758 110.484C307.13 110.7 307.556 110.808 308.036 110.808ZM310.358 112.5V110.178L310.7 108.072L310.358 105.984V103.86H312.338V112.5H310.358ZM314.536 112.5V103.86H316.516V112.5H314.536ZM316.516 107.694L315.832 107.352C315.832 106.26 316.072 105.378 316.552 104.706C317.044 104.022 317.782 103.68 318.766 103.68C319.198 103.68 319.588 103.758 319.936 103.914C320.284 104.07 320.608 104.322 320.908 104.67L319.612 106.002C319.456 105.834 319.282 105.714 319.09 105.642C318.898 105.57 318.676 105.534 318.424 105.534C317.872 105.534 317.416 105.708 317.056 106.056C316.696 106.404 316.516 106.95 316.516 107.694ZM325.22 112.68C324.44 112.68 323.732 112.482 323.096 112.086C322.472 111.69 321.974 111.156 321.602 110.484C321.242 109.8 321.062 109.038 321.062 108.198C321.062 107.346 321.242 106.584 321.602 105.912C321.974 105.228 322.472 104.688 323.096 104.292C323.732 103.884 324.44 103.68 325.22 103.68C325.88 103.68 326.462 103.824 326.966 104.112C327.482 104.388 327.89 104.772 328.19 105.264C328.49 105.756 328.64 106.314 328.64 106.938V109.422C328.64 110.046 328.49 110.604 328.19 111.096C327.902 111.588 327.5 111.978 326.984 112.266C326.468 112.542 325.88 112.68 325.22 112.68ZM325.544 110.808C326.036 110.808 326.462 110.7 326.822 110.484C327.194 110.256 327.482 109.944 327.686 109.548C327.89 109.152 327.992 108.696 327.992 108.18C327.992 107.664 327.89 107.208 327.686 106.812C327.482 106.416 327.194 106.11 326.822 105.894C326.462 105.666 326.036 105.552 325.544 105.552C325.064 105.552 324.638 105.666 324.266 105.894C323.906 106.11 323.618 106.416 323.402 106.812C323.198 107.208 323.096 107.664 323.096 108.18C323.096 108.696 323.198 109.152 323.402 109.548C323.618 109.944 323.906 110.256 324.266 110.484C324.638 110.7 325.064 110.808 325.544 110.808ZM329.846 112.5H327.866V110.178L328.208 108.072L327.866 105.984V99.54H329.846V112.5ZM334.869 112.68C334.389 112.68 333.927 112.62 333.483 112.5C333.039 112.368 332.631 112.188 332.259 111.96C331.887 111.72 331.563 111.432 331.287 111.096L332.547 109.836C332.847 110.184 333.189 110.448 333.573 110.628C333.969 110.796 334.413 110.88 334.905 110.88C335.349 110.88 335.685 110.814 335.913 110.682C336.141 110.55 336.255 110.358 336.255 110.106C336.255 109.842 336.147 109.638 335.931 109.494C335.715 109.35 335.433 109.23 335.085 109.134C334.749 109.026 334.389 108.918 334.005 108.81C333.633 108.702 333.273 108.558 332.925 108.378C332.589 108.186 332.313 107.928 332.097 107.604C331.881 107.28 331.773 106.86 331.773 106.344C331.773 105.792 331.899 105.318 332.151 104.922C332.415 104.526 332.781 104.22 333.249 104.004C333.729 103.788 334.299 103.68 334.959 103.68C335.655 103.68 336.267 103.806 336.795 104.058C337.335 104.298 337.785 104.664 338.145 105.156L336.885 106.416C336.633 106.104 336.345 105.87 336.021 105.714C335.697 105.558 335.325 105.48 334.905 105.48C334.509 105.48 334.203 105.54 333.987 105.66C333.771 105.78 333.663 105.954 333.663 106.182C333.663 106.422 333.771 106.608 333.987 106.74C334.203 106.872 334.479 106.986 334.815 107.082C335.163 107.178 335.523 107.286 335.895 107.406C336.279 107.514 336.639 107.67 336.975 107.874C337.323 108.066 337.605 108.33 337.821 108.666C338.037 108.99 338.145 109.416 338.145 109.944C338.145 110.784 337.851 111.45 337.263 111.942C336.675 112.434 335.877 112.68 334.869 112.68ZM351.769 112.5L345.793 105.966C345.349 105.474 345.013 105.006 344.785 104.562C344.569 104.118 344.461 103.626 344.461 103.086C344.461 102.45 344.617 101.88 344.929 101.376C345.241 100.86 345.667 100.452 346.207 100.152C346.747 99.852 347.365 99.702 348.061 99.702C348.589 99.702 349.069 99.792 349.501 99.972C349.933 100.14 350.311 100.368 350.635 100.656C350.971 100.932 351.247 101.238 351.463 101.574L350.041 102.834C349.777 102.474 349.489 102.18 349.177 101.952C348.877 101.724 348.505 101.61 348.061 101.61C347.605 101.61 347.221 101.748 346.909 102.024C346.597 102.288 346.441 102.624 346.441 103.032C346.441 103.44 346.525 103.776 346.693 104.04C346.861 104.304 347.095 104.61 347.395 104.958L354.145 112.5H351.769ZM347.467 112.68C346.603 112.68 345.847 112.518 345.199 112.194C344.563 111.858 344.065 111.402 343.705 110.826C343.357 110.238 343.183 109.572 343.183 108.828C343.183 108.072 343.387 107.394 343.795 106.794C344.215 106.194 344.827 105.708 345.631 105.336L346.549 106.542C346.105 106.782 345.763 107.082 345.523 107.442C345.283 107.79 345.163 108.234 345.163 108.774C345.163 109.206 345.259 109.572 345.451 109.872C345.655 110.172 345.937 110.406 346.297 110.574C346.657 110.73 347.071 110.808 347.539 110.808C348.151 110.808 348.655 110.682 349.051 110.43C349.459 110.178 349.765 109.878 349.969 109.53L351.265 111.042C351.013 111.354 350.689 111.636 350.293 111.888C349.897 112.128 349.459 112.32 348.979 112.464C348.499 112.608 347.995 112.68 347.467 112.68ZM360.032 107.154V105.444H363.218C363.854 105.444 364.346 105.282 364.694 104.958C365.054 104.622 365.234 104.16 365.234 103.572C365.234 103.044 365.06 102.6 364.712 102.24C364.364 101.88 363.872 101.7 363.236 101.7H360.032V99.9H363.326C364.118 99.9 364.814 100.062 365.414 100.386C366.014 100.698 366.476 101.13 366.8 101.682C367.136 102.222 367.304 102.84 367.304 103.536C367.304 104.268 367.136 104.904 366.8 105.444C366.476 105.984 366.014 106.404 365.414 106.704C364.814 107.004 364.118 107.154 363.326 107.154H360.032ZM358.61 112.5V99.9H360.68V112.5H358.61ZM365.522 112.5L361.112 107.028L363.038 106.326L368.132 112.5H365.522ZM373.147 112.68C372.283 112.68 371.503 112.488 370.807 112.104C370.123 111.708 369.577 111.168 369.169 110.484C368.773 109.8 368.575 109.032 368.575 108.18C368.575 107.328 368.773 106.566 369.169 105.894C369.565 105.21 370.099 104.67 370.771 104.274C371.455 103.878 372.211 103.68 373.039 103.68C373.843 103.68 374.551 103.866 375.163 104.238C375.787 104.61 376.273 105.12 376.621 105.768C376.981 106.416 377.161 107.154 377.161 107.982C377.161 108.126 377.149 108.276 377.125 108.432C377.113 108.576 377.089 108.738 377.053 108.918H369.961V107.298H376.027L375.289 107.946C375.265 107.418 375.163 106.974 374.983 106.614C374.803 106.254 374.545 105.978 374.209 105.786C373.885 105.594 373.483 105.498 373.003 105.498C372.499 105.498 372.061 105.606 371.689 105.822C371.317 106.038 371.029 106.344 370.825 106.74C370.621 107.124 370.519 107.586 370.519 108.126C370.519 108.666 370.627 109.14 370.843 109.548C371.059 109.956 371.365 110.274 371.761 110.502C372.157 110.718 372.613 110.826 373.129 110.826C373.573 110.826 373.981 110.748 374.353 110.592C374.737 110.436 375.061 110.208 375.325 109.908L376.585 111.186C376.165 111.678 375.655 112.05 375.055 112.302C374.455 112.554 373.819 112.68 373.147 112.68ZM382.726 112.68C381.874 112.68 381.1 112.482 380.404 112.086C379.72 111.69 379.18 111.15 378.784 110.466C378.388 109.782 378.19 109.02 378.19 108.18C378.19 107.328 378.388 106.566 378.784 105.894C379.18 105.21 379.72 104.67 380.404 104.274C381.1 103.878 381.874 103.68 382.726 103.68C383.398 103.68 384.022 103.812 384.598 104.076C385.186 104.328 385.684 104.694 386.092 105.174L384.796 106.488C384.544 106.188 384.238 105.966 383.878 105.822C383.53 105.666 383.146 105.588 382.726 105.588C382.234 105.588 381.796 105.702 381.412 105.93C381.04 106.146 380.746 106.446 380.53 106.83C380.326 107.214 380.224 107.664 380.224 108.18C380.224 108.684 380.326 109.134 380.53 109.53C380.746 109.914 381.04 110.22 381.412 110.448C381.796 110.664 382.234 110.772 382.726 110.772C383.146 110.772 383.53 110.7 383.878 110.556C384.238 110.4 384.544 110.172 384.796 109.872L386.092 111.186C385.684 111.666 385.186 112.038 384.598 112.302C384.022 112.554 383.398 112.68 382.726 112.68ZM391.304 112.68C390.464 112.68 389.702 112.482 389.018 112.086C388.334 111.678 387.788 111.132 387.38 110.448C386.984 109.764 386.786 109.002 386.786 108.162C386.786 107.322 386.984 106.566 387.38 105.894C387.788 105.222 388.334 104.688 389.018 104.292C389.702 103.884 390.464 103.68 391.304 103.68C392.156 103.68 392.924 103.878 393.608 104.274C394.292 104.67 394.832 105.21 395.228 105.894C395.636 106.566 395.84 107.322 395.84 108.162C395.84 109.002 395.636 109.764 395.228 110.448C394.832 111.132 394.292 111.678 393.608 112.086C392.924 112.482 392.156 112.68 391.304 112.68ZM391.304 110.772C391.796 110.772 392.228 110.664 392.6 110.448C392.984 110.22 393.278 109.908 393.482 109.512C393.698 109.116 393.806 108.666 393.806 108.162C393.806 107.658 393.698 107.214 393.482 106.83C393.266 106.446 392.972 106.146 392.6 105.93C392.228 105.702 391.796 105.588 391.304 105.588C390.824 105.588 390.392 105.702 390.008 105.93C389.636 106.146 389.342 106.446 389.126 106.83C388.922 107.214 388.82 107.658 388.82 108.162C388.82 108.666 388.922 109.116 389.126 109.512C389.342 109.908 389.636 110.22 390.008 110.448C390.392 110.664 390.824 110.772 391.304 110.772ZM401.087 116.28C400.175 116.28 399.377 116.112 398.693 115.776C398.009 115.452 397.457 114.99 397.037 114.39L398.333 113.094C398.681 113.526 399.077 113.85 399.521 114.066C399.965 114.282 400.499 114.39 401.123 114.39C401.903 114.39 402.521 114.186 402.977 113.778C403.433 113.382 403.661 112.836 403.661 112.14V110.016L404.003 108.108L403.661 106.182V103.86H405.641V112.14C405.641 112.968 405.449 113.688 405.065 114.3C404.681 114.924 404.147 115.41 403.463 115.758C402.779 116.106 401.987 116.28 401.087 116.28ZM400.997 112.32C400.229 112.32 399.533 112.134 398.909 111.762C398.297 111.378 397.811 110.856 397.451 110.196C397.103 109.536 396.929 108.798 396.929 107.982C396.929 107.166 397.103 106.434 397.451 105.786C397.811 105.138 398.297 104.628 398.909 104.256C399.533 103.872 400.229 103.68 400.997 103.68C401.681 103.68 402.281 103.818 402.797 104.094C403.313 104.37 403.715 104.754 404.003 105.246C404.291 105.726 404.435 106.29 404.435 106.938V109.062C404.435 109.698 404.285 110.262 403.985 110.754C403.697 111.246 403.295 111.63 402.779 111.906C402.263 112.182 401.669 112.32 400.997 112.32ZM401.393 110.448C401.873 110.448 402.293 110.346 402.653 110.142C403.013 109.938 403.289 109.656 403.481 109.296C403.685 108.924 403.787 108.492 403.787 108C403.787 107.508 403.685 107.082 403.481 106.722C403.289 106.35 403.013 106.062 402.653 105.858C402.293 105.654 401.873 105.552 401.393 105.552C400.913 105.552 400.487 105.654 400.115 105.858C399.755 106.062 399.473 106.35 399.269 106.722C399.065 107.082 398.963 107.508 398.963 108C398.963 108.48 399.065 108.906 399.269 109.278C399.473 109.65 399.755 109.938 400.115 110.142C400.487 110.346 400.913 110.448 401.393 110.448ZM413.762 112.5V107.514C413.762 106.938 413.576 106.464 413.204 106.092C412.844 105.72 412.376 105.534 411.8 105.534C411.416 105.534 411.074 105.618 410.774 105.786C410.474 105.954 410.24 106.188 410.072 106.488C409.904 106.788 409.82 107.13 409.82 107.514L409.046 107.082C409.046 106.422 409.19 105.84 409.478 105.336C409.766 104.82 410.162 104.418 410.666 104.13C411.182 103.83 411.758 103.68 412.394 103.68C413.042 103.68 413.618 103.848 414.122 104.184C414.626 104.508 415.022 104.934 415.31 105.462C415.598 105.978 415.742 106.518 415.742 107.082V112.5H413.762ZM407.84 112.5V103.86H409.82V112.5H407.84ZM417.772 112.5V103.86H419.752V112.5H417.772ZM418.762 102.276C418.426 102.276 418.144 102.162 417.916 101.934C417.7 101.706 417.592 101.424 417.592 101.088C417.592 100.752 417.7 100.47 417.916 100.242C418.144 100.014 418.426 99.9 418.762 99.9C419.11 99.9 419.392 100.014 419.608 100.242C419.824 100.47 419.932 100.752 419.932 101.088C419.932 101.424 419.824 101.706 419.608 101.934C419.392 102.162 419.11 102.276 418.762 102.276ZM423.287 112.5V100.26H425.267V112.5H423.287ZM421.217 105.66V103.86H427.337V105.66H421.217ZM428.794 112.5V103.86H430.774V112.5H428.794ZM429.784 102.276C429.448 102.276 429.166 102.162 428.938 101.934C428.722 101.706 428.614 101.424 428.614 101.088C428.614 100.752 428.722 100.47 428.938 100.242C429.166 100.014 429.448 99.9 429.784 99.9C430.132 99.9 430.414 100.014 430.63 100.242C430.846 100.47 430.954 100.752 430.954 101.088C430.954 101.424 430.846 101.706 430.63 101.934C430.414 102.162 430.132 102.276 429.784 102.276ZM436.954 112.68C436.114 112.68 435.352 112.482 434.668 112.086C433.984 111.678 433.438 111.132 433.03 110.448C432.634 109.764 432.436 109.002 432.436 108.162C432.436 107.322 432.634 106.566 433.03 105.894C433.438 105.222 433.984 104.688 434.668 104.292C435.352 103.884 436.114 103.68 436.954 103.68C437.806 103.68 438.574 103.878 439.258 104.274C439.942 104.67 440.482 105.21 440.878 105.894C441.286 106.566 441.49 107.322 441.49 108.162C441.49 109.002 441.286 109.764 440.878 110.448C440.482 111.132 439.942 111.678 439.258 112.086C438.574 112.482 437.806 112.68 436.954 112.68ZM436.954 110.772C437.446 110.772 437.878 110.664 438.25 110.448C438.634 110.22 438.928 109.908 439.132 109.512C439.348 109.116 439.456 108.666 439.456 108.162C439.456 107.658 439.348 107.214 439.132 106.83C438.916 106.446 438.622 106.146 438.25 105.93C437.878 105.702 437.446 105.588 436.954 105.588C436.474 105.588 436.042 105.702 435.658 105.93C435.286 106.146 434.992 106.446 434.776 106.83C434.572 107.214 434.47 107.658 434.47 108.162C434.47 108.666 434.572 109.116 434.776 109.512C434.992 109.908 435.286 110.22 435.658 110.448C436.042 110.664 436.474 110.772 436.954 110.772ZM449.059 112.5V107.514C449.059 106.938 448.873 106.464 448.501 106.092C448.141 105.72 447.673 105.534 447.097 105.534C446.713 105.534 446.371 105.618 446.071 105.786C445.771 105.954 445.537 106.188 445.369 106.488C445.201 106.788 445.117 107.13 445.117 107.514L444.343 107.082C444.343 106.422 444.487 105.84 444.775 105.336C445.063 104.82 445.459 104.418 445.963 104.13C446.479 103.83 447.055 103.68 447.691 103.68C448.339 103.68 448.915 103.848 449.419 104.184C449.923 104.508 450.319 104.934 450.607 105.462C450.895 105.978 451.039 106.518 451.039 107.082V112.5H449.059ZM443.137 112.5V103.86H445.117V112.5H443.137ZM455.877 112.68C455.397 112.68 454.935 112.62 454.491 112.5C454.047 112.368 453.639 112.188 453.267 111.96C452.895 111.72 452.571 111.432 452.295 111.096L453.555 109.836C453.855 110.184 454.197 110.448 454.581 110.628C454.977 110.796 455.421 110.88 455.913 110.88C456.357 110.88 456.693 110.814 456.921 110.682C457.149 110.55 457.263 110.358 457.263 110.106C457.263 109.842 457.155 109.638 456.939 109.494C456.723 109.35 456.441 109.23 456.093 109.134C455.757 109.026 455.397 108.918 455.013 108.81C454.641 108.702 454.281 108.558 453.933 108.378C453.597 108.186 453.321 107.928 453.105 107.604C452.889 107.28 452.781 106.86 452.781 106.344C452.781 105.792 452.907 105.318 453.159 104.922C453.423 104.526 453.789 104.22 454.257 104.004C454.737 103.788 455.307 103.68 455.967 103.68C456.663 103.68 457.275 103.806 457.803 104.058C458.343 104.298 458.793 104.664 459.153 105.156L457.893 106.416C457.641 106.104 457.353 105.87 457.029 105.714C456.705 105.558 456.333 105.48 455.913 105.48C455.517 105.48 455.211 105.54 454.995 105.66C454.779 105.78 454.671 105.954 454.671 106.182C454.671 106.422 454.779 106.608 454.995 106.74C455.211 106.872 455.487 106.986 455.823 107.082C456.171 107.178 456.531 107.286 456.903 107.406C457.287 107.514 457.647 107.67 457.983 107.874C458.331 108.066 458.613 108.33 458.829 108.666C459.045 108.99 459.153 109.416 459.153 109.944C459.153 110.784 458.859 111.45 458.271 111.942C457.683 112.434 456.885 112.68 455.877 112.68Z" fill="#262626"/>
<path d="M506.068 63.884V57.68H527.056V63.884H506.068ZM513.416 49.716H519.752V71.76H513.416V49.716ZM535.781 75.5V44.304H543.569V75.5H535.781ZM529.841 50.86V44.304H543.129V50.86H529.841ZM557.589 75.984C555.448 75.984 553.395 75.6173 551.429 74.884C549.493 74.1213 547.895 73.0507 546.633 71.672L551.649 66.744C552.177 67.5067 552.955 68.1373 553.981 68.636C555.037 69.1053 556.137 69.34 557.281 69.34C558.308 69.34 559.188 69.164 559.921 68.812C560.684 68.4307 561.271 67.9173 561.681 67.272C562.121 66.5973 562.341 65.8053 562.341 64.896C562.341 63.9867 562.121 63.1947 561.681 62.52C561.271 61.8453 560.669 61.3173 559.877 60.936C559.085 60.5547 558.132 60.364 557.017 60.364C556.02 60.364 555.096 60.5107 554.245 60.804C553.424 61.068 552.676 61.4493 552.001 61.948L552.749 56.932C553.541 56.4627 554.245 56.0667 554.861 55.744C555.477 55.4213 556.123 55.1867 556.797 55.04C557.501 54.8933 558.323 54.82 559.261 54.82C561.637 54.82 563.617 55.304 565.201 56.272C566.815 57.2107 568.032 58.472 568.853 60.056C569.675 61.6107 570.085 63.3267 570.085 65.204C570.085 67.316 569.572 69.1933 568.545 70.836C567.519 72.4493 566.067 73.7107 564.189 74.62C562.341 75.5293 560.141 75.984 557.589 75.984ZM552.001 61.948L548.921 59.132L550.461 44.304H557.501L555.873 58.648L552.001 61.948ZM551.429 50.86L550.461 44.304H568.369V50.86H551.429Z" fill="#262626"/>
<path d="M505.368 112.5V99.9H507.438V112.5H505.368ZM506.79 112.5V110.61H513.846V112.5H506.79ZM506.79 106.974V105.156H513.234V106.974H506.79ZM506.79 101.79V99.9H513.756V101.79H506.79ZM521.187 112.5L518.703 108.846L518.343 108.522L514.995 103.86H517.389L519.603 107.064L519.945 107.37L523.563 112.5H521.187ZM514.833 112.5L518.325 107.658L519.477 109.08L517.137 112.5H514.833ZM520.125 108.486L518.955 107.082L521.115 103.86H523.401L520.125 108.486ZM529.499 112.68C528.839 112.68 528.251 112.542 527.735 112.266C527.219 111.978 526.811 111.588 526.511 111.096C526.223 110.604 526.079 110.046 526.079 109.422V106.938C526.079 106.314 526.229 105.756 526.529 105.264C526.829 104.772 527.237 104.388 527.753 104.112C528.269 103.824 528.851 103.68 529.499 103.68C530.279 103.68 530.981 103.884 531.605 104.292C532.241 104.688 532.739 105.228 533.099 105.912C533.471 106.584 533.657 107.346 533.657 108.198C533.657 109.038 533.471 109.8 533.099 110.484C532.739 111.156 532.241 111.69 531.605 112.086C530.981 112.482 530.279 112.68 529.499 112.68ZM529.175 110.808C529.655 110.808 530.075 110.7 530.435 110.484C530.807 110.256 531.095 109.944 531.299 109.548C531.515 109.152 531.623 108.696 531.623 108.18C531.623 107.664 531.515 107.208 531.299 106.812C531.095 106.416 530.807 106.11 530.435 105.894C530.075 105.666 529.655 105.552 529.175 105.552C528.695 105.552 528.269 105.666 527.897 105.894C527.525 106.11 527.237 106.416 527.033 106.812C526.829 107.208 526.727 107.664 526.727 108.18C526.727 108.696 526.829 109.152 527.033 109.548C527.237 109.944 527.525 110.256 527.897 110.484C528.269 110.7 528.695 110.808 529.175 110.808ZM524.873 116.1V103.86H526.853V106.182L526.511 108.288L526.853 110.376V116.1H524.873ZM539.329 112.68C538.465 112.68 537.685 112.488 536.989 112.104C536.305 111.708 535.759 111.168 535.351 110.484C534.955 109.8 534.757 109.032 534.757 108.18C534.757 107.328 534.955 106.566 535.351 105.894C535.747 105.21 536.281 104.67 536.953 104.274C537.637 103.878 538.393 103.68 539.221 103.68C540.025 103.68 540.733 103.866 541.345 104.238C541.969 104.61 542.455 105.12 542.803 105.768C543.163 106.416 543.343 107.154 543.343 107.982C543.343 108.126 543.331 108.276 543.307 108.432C543.295 108.576 543.271 108.738 543.235 108.918H536.143V107.298H542.209L541.471 107.946C541.447 107.418 541.345 106.974 541.165 106.614C540.985 106.254 540.727 105.978 540.391 105.786C540.067 105.594 539.665 105.498 539.185 105.498C538.681 105.498 538.243 105.606 537.871 105.822C537.499 106.038 537.211 106.344 537.007 106.74C536.803 107.124 536.701 107.586 536.701 108.126C536.701 108.666 536.809 109.14 537.025 109.548C537.241 109.956 537.547 110.274 537.943 110.502C538.339 110.718 538.795 110.826 539.311 110.826C539.755 110.826 540.163 110.748 540.535 110.592C540.919 110.436 541.243 110.208 541.507 109.908L542.767 111.186C542.347 111.678 541.837 112.05 541.237 112.302C540.637 112.554 540.001 112.68 539.329 112.68ZM544.93 112.5V103.86H546.91V112.5H544.93ZM546.91 107.694L546.226 107.352C546.226 106.26 546.466 105.378 546.946 104.706C547.438 104.022 548.176 103.68 549.16 103.68C549.592 103.68 549.982 103.758 550.33 103.914C550.678 104.07 551.002 104.322 551.302 104.67L550.006 106.002C549.85 105.834 549.676 105.714 549.484 105.642C549.292 105.57 549.07 105.534 548.818 105.534C548.266 105.534 547.81 105.708 547.45 106.056C547.09 106.404 546.91 106.95 546.91 107.694ZM552.278 112.5V103.86H554.258V112.5H552.278ZM553.268 102.276C552.932 102.276 552.65 102.162 552.422 101.934C552.206 101.706 552.098 101.424 552.098 101.088C552.098 100.752 552.206 100.47 552.422 100.242C552.65 100.014 552.932 99.9 553.268 99.9C553.616 99.9 553.898 100.014 554.114 100.242C554.33 100.47 554.438 100.752 554.438 101.088C554.438 101.424 554.33 101.706 554.114 101.934C553.898 102.162 553.616 102.276 553.268 102.276ZM560.493 112.68C559.629 112.68 558.849 112.488 558.153 112.104C557.469 111.708 556.923 111.168 556.515 110.484C556.119 109.8 555.921 109.032 555.921 108.18C555.921 107.328 556.119 106.566 556.515 105.894C556.911 105.21 557.445 104.67 558.117 104.274C558.801 103.878 559.557 103.68 560.385 103.68C561.189 103.68 561.897 103.866 562.509 104.238C563.133 104.61 563.619 105.12 563.967 105.768C564.327 106.416 564.507 107.154 564.507 107.982C564.507 108.126 564.495 108.276 564.471 108.432C564.459 108.576 564.435 108.738 564.399 108.918H557.307V107.298H563.373L562.635 107.946C562.611 107.418 562.509 106.974 562.329 106.614C562.149 106.254 561.891 105.978 561.555 105.786C561.231 105.594 560.829 105.498 560.349 105.498C559.845 105.498 559.407 105.606 559.035 105.822C558.663 106.038 558.375 106.344 558.171 106.74C557.967 107.124 557.865 107.586 557.865 108.126C557.865 108.666 557.973 109.14 558.189 109.548C558.405 109.956 558.711 110.274 559.107 110.502C559.503 110.718 559.959 110.826 560.475 110.826C560.919 110.826 561.327 110.748 561.699 110.592C562.083 110.436 562.407 110.208 562.671 109.908L563.931 111.186C563.511 111.678 563.001 112.05 562.401 112.302C561.801 112.554 561.165 112.68 560.493 112.68ZM572.016 112.5V107.514C572.016 106.938 571.83 106.464 571.458 106.092C571.098 105.72 570.63 105.534 570.054 105.534C569.67 105.534 569.328 105.618 569.028 105.786C568.728 105.954 568.494 106.188 568.326 106.488C568.158 106.788 568.074 107.13 568.074 107.514L567.3 107.082C567.3 106.422 567.444 105.84 567.732 105.336C568.02 104.82 568.416 104.418 568.92 104.13C569.436 103.83 570.012 103.68 570.648 103.68C571.296 103.68 571.872 103.848 572.376 104.184C572.88 104.508 573.276 104.934 573.564 105.462C573.852 105.978 573.996 106.518 573.996 107.082V112.5H572.016ZM566.094 112.5V103.86H568.074V112.5H566.094ZM579.986 112.68C579.134 112.68 578.36 112.482 577.664 112.086C576.98 111.69 576.44 111.15 576.044 110.466C575.648 109.782 575.45 109.02 575.45 108.18C575.45 107.328 575.648 106.566 576.044 105.894C576.44 105.21 576.98 104.67 577.664 104.274C578.36 103.878 579.134 103.68 579.986 103.68C580.658 103.68 581.282 103.812 581.858 104.076C582.446 104.328 582.944 104.694 583.352 105.174L582.056 106.488C581.804 106.188 581.498 105.966 581.138 105.822C580.79 105.666 580.406 105.588 579.986 105.588C579.494 105.588 579.056 105.702 578.672 105.93C578.3 106.146 578.006 106.446 577.79 106.83C577.586 107.214 577.484 107.664 577.484 108.18C577.484 108.684 577.586 109.134 577.79 109.53C578.006 109.914 578.3 110.22 578.672 110.448C579.056 110.664 579.494 110.772 579.986 110.772C580.406 110.772 580.79 110.7 581.138 110.556C581.498 110.4 581.804 110.172 582.056 109.872L583.352 111.186C582.944 111.666 582.446 112.038 581.858 112.302C581.282 112.554 580.658 112.68 579.986 112.68ZM588.618 112.68C587.754 112.68 586.974 112.488 586.278 112.104C585.594 111.708 585.048 111.168 584.64 110.484C584.244 109.8 584.046 109.032 584.046 108.18C584.046 107.328 584.244 106.566 584.64 105.894C585.036 105.21 585.57 104.67 586.242 104.274C586.926 103.878 587.682 103.68 588.51 103.68C589.314 103.68 590.022 103.866 590.634 104.238C591.258 104.61 591.744 105.12 592.092 105.768C592.452 106.416 592.632 107.154 592.632 107.982C592.632 108.126 592.62 108.276 592.596 108.432C592.584 108.576 592.56 108.738 592.524 108.918H585.432V107.298H591.498L590.76 107.946C590.736 107.418 590.634 106.974 590.454 106.614C590.274 106.254 590.016 105.978 589.68 105.786C589.356 105.594 588.954 105.498 588.474 105.498C587.97 105.498 587.532 105.606 587.16 105.822C586.788 106.038 586.5 106.344 586.296 106.74C586.092 107.124 585.99 107.586 585.99 108.126C585.99 108.666 586.098 109.14 586.314 109.548C586.53 109.956 586.836 110.274 587.232 110.502C587.628 110.718 588.084 110.826 588.6 110.826C589.044 110.826 589.452 110.748 589.824 110.592C590.208 110.436 590.532 110.208 590.796 109.908L592.056 111.186C591.636 111.678 591.126 112.05 590.526 112.302C589.926 112.554 589.29 112.68 588.618 112.68ZM598.093 112.5V99.9H600.163V112.5H598.093ZM599.515 112.5V110.61H606.571V112.5H599.515ZM599.515 106.974V105.156H605.959V106.974H599.515ZM599.515 101.79V99.9H606.481V101.79H599.515ZM611.917 112.68C611.137 112.68 610.429 112.482 609.793 112.086C609.169 111.69 608.671 111.156 608.299 110.484C607.939 109.8 607.759 109.038 607.759 108.198C607.759 107.346 607.939 106.584 608.299 105.912C608.671 105.228 609.169 104.688 609.793 104.292C610.429 103.884 611.137 103.68 611.917 103.68C612.577 103.68 613.159 103.824 613.663 104.112C614.179 104.388 614.587 104.772 614.887 105.264C615.187 105.756 615.337 106.314 615.337 106.938V109.422C615.337 110.046 615.187 110.604 614.887 111.096C614.599 111.588 614.197 111.978 613.681 112.266C613.165 112.542 612.577 112.68 611.917 112.68ZM612.241 110.808C612.733 110.808 613.159 110.7 613.519 110.484C613.891 110.256 614.179 109.944 614.383 109.548C614.587 109.152 614.689 108.696 614.689 108.18C614.689 107.664 614.587 107.208 614.383 106.812C614.179 106.416 613.891 106.11 613.519 105.894C613.159 105.666 612.733 105.552 612.241 105.552C611.761 105.552 611.335 105.666 610.963 105.894C610.603 106.11 610.315 106.416 610.099 106.812C609.895 107.208 609.793 107.664 609.793 108.18C609.793 108.696 609.895 109.152 610.099 109.548C610.315 109.944 610.603 110.256 610.963 110.484C611.335 110.7 611.761 110.808 612.241 110.808ZM616.543 112.5H614.563V110.178L614.905 108.072L614.563 105.984V99.54H616.543V112.5ZM622.287 112.68C621.555 112.68 620.901 112.518 620.325 112.194C619.761 111.87 619.317 111.426 618.993 110.862C618.681 110.286 618.525 109.626 618.525 108.882V103.86H620.505V108.792C620.505 109.212 620.571 109.572 620.703 109.872C620.847 110.16 621.051 110.382 621.315 110.538C621.591 110.694 621.915 110.772 622.287 110.772C622.863 110.772 623.301 110.604 623.601 110.268C623.913 109.92 624.069 109.428 624.069 108.792V103.86H626.049V108.882C626.049 109.638 625.887 110.304 625.563 110.88C625.251 111.444 624.813 111.888 624.249 112.212C623.685 112.524 623.031 112.68 622.287 112.68ZM632.017 112.68C631.165 112.68 630.391 112.482 629.695 112.086C629.011 111.69 628.471 111.15 628.075 110.466C627.679 109.782 627.481 109.02 627.481 108.18C627.481 107.328 627.679 106.566 628.075 105.894C628.471 105.21 629.011 104.67 629.695 104.274C630.391 103.878 631.165 103.68 632.017 103.68C632.689 103.68 633.313 103.812 633.889 104.076C634.477 104.328 634.975 104.694 635.383 105.174L634.087 106.488C633.835 106.188 633.529 105.966 633.169 105.822C632.821 105.666 632.437 105.588 632.017 105.588C631.525 105.588 631.087 105.702 630.703 105.93C630.331 106.146 630.037 106.446 629.821 106.83C629.617 107.214 629.515 107.664 629.515 108.18C629.515 108.684 629.617 109.134 629.821 109.53C630.037 109.914 630.331 110.22 630.703 110.448C631.087 110.664 631.525 110.772 632.017 110.772C632.437 110.772 632.821 110.7 633.169 110.556C633.529 110.4 633.835 110.172 634.087 109.872L635.383 111.186C634.975 111.666 634.477 112.038 633.889 112.302C633.313 112.554 632.689 112.68 632.017 112.68ZM640.253 112.68C639.473 112.68 638.765 112.482 638.129 112.086C637.505 111.69 637.007 111.156 636.635 110.484C636.275 109.8 636.095 109.038 636.095 108.198C636.095 107.346 636.275 106.584 636.635 105.912C637.007 105.228 637.505 104.688 638.129 104.292C638.765 103.884 639.473 103.68 640.253 103.68C640.913 103.68 641.495 103.824 641.999 104.112C642.515 104.388 642.923 104.772 643.223 105.264C643.523 105.756 643.673 106.314 643.673 106.938V109.422C643.673 110.046 643.523 110.604 643.223 111.096C642.935 111.588 642.533 111.978 642.017 112.266C641.501 112.542 640.913 112.68 640.253 112.68ZM640.577 110.808C641.309 110.808 641.897 110.562 642.341 110.07C642.797 109.578 643.025 108.948 643.025 108.18C643.025 107.664 642.923 107.208 642.719 106.812C642.515 106.416 642.227 106.11 641.855 105.894C641.495 105.666 641.069 105.552 640.577 105.552C640.097 105.552 639.671 105.666 639.299 105.894C638.939 106.11 638.651 106.416 638.435 106.812C638.231 107.208 638.129 107.664 638.129 108.18C638.129 108.696 638.231 109.152 638.435 109.548C638.651 109.944 638.939 110.256 639.299 110.484C639.671 110.7 640.097 110.808 640.577 110.808ZM642.899 112.5V110.178L643.241 108.072L642.899 105.984V103.86H644.879V112.5H642.899ZM648.391 112.5V100.26H650.371V112.5H648.391ZM646.321 105.66V103.86H652.441V105.66H646.321ZM657.593 112.68C656.753 112.68 655.991 112.482 655.307 112.086C654.623 111.678 654.077 111.132 653.669 110.448C653.273 109.764 653.075 109.002 653.075 108.162C653.075 107.322 653.273 106.566 653.669 105.894C654.077 105.222 654.623 104.688 655.307 104.292C655.991 103.884 656.753 103.68 657.593 103.68C658.445 103.68 659.213 103.878 659.897 104.274C660.581 104.67 661.121 105.21 661.517 105.894C661.925 106.566 662.129 107.322 662.129 108.162C662.129 109.002 661.925 109.764 661.517 110.448C661.121 111.132 660.581 111.678 659.897 112.086C659.213 112.482 658.445 112.68 657.593 112.68ZM657.593 110.772C658.085 110.772 658.517 110.664 658.889 110.448C659.273 110.22 659.567 109.908 659.771 109.512C659.987 109.116 660.095 108.666 660.095 108.162C660.095 107.658 659.987 107.214 659.771 106.83C659.555 106.446 659.261 106.146 658.889 105.93C658.517 105.702 658.085 105.588 657.593 105.588C657.113 105.588 656.681 105.702 656.297 105.93C655.925 106.146 655.631 106.446 655.415 106.83C655.211 107.214 655.109 107.658 655.109 108.162C655.109 108.666 655.211 109.116 655.415 109.512C655.631 109.908 655.925 110.22 656.297 110.448C656.681 110.664 657.113 110.772 657.593 110.772ZM663.776 112.5V103.86H665.756V112.5H663.776ZM665.756 107.694L665.072 107.352C665.072 106.26 665.312 105.378 665.792 104.706C666.284 104.022 667.022 103.68 668.006 103.68C668.438 103.68 668.828 103.758 669.176 103.914C669.524 104.07 669.848 104.322 670.148 104.67L668.852 106.002C668.696 105.834 668.522 105.714 668.33 105.642C668.138 105.57 667.916 105.534 667.664 105.534C667.112 105.534 666.656 105.708 666.296 106.056C665.936 106.404 665.756 106.95 665.756 107.694ZM673.738 112.68C673.258 112.68 672.796 112.62 672.352 112.5C671.908 112.368 671.5 112.188 671.128 111.96C670.756 111.72 670.432 111.432 670.156 111.096L671.416 109.836C671.716 110.184 672.058 110.448 672.442 110.628C672.838 110.796 673.282 110.88 673.774 110.88C674.218 110.88 674.554 110.814 674.782 110.682C675.01 110.55 675.124 110.358 675.124 110.106C675.124 109.842 675.016 109.638 674.8 109.494C674.584 109.35 674.302 109.23 673.954 109.134C673.618 109.026 673.258 108.918 672.874 108.81C672.502 108.702 672.142 108.558 671.794 108.378C671.458 108.186 671.182 107.928 670.966 107.604C670.75 107.28 670.642 106.86 670.642 106.344C670.642 105.792 670.768 105.318 671.02 104.922C671.284 104.526 671.65 104.22 672.118 104.004C672.598 103.788 673.168 103.68 673.828 103.68C674.524 103.68 675.136 103.806 675.664 104.058C676.204 104.298 676.654 104.664 677.014 105.156L675.754 106.416C675.502 106.104 675.214 105.87 674.89 105.714C674.566 105.558 674.194 105.48 673.774 105.48C673.378 105.48 673.072 105.54 672.856 105.66C672.64 105.78 672.532 105.954 672.532 106.182C672.532 106.422 672.64 106.608 672.856 106.74C673.072 106.872 673.348 106.986 673.684 107.082C674.032 107.178 674.392 107.286 674.764 107.406C675.148 107.514 675.508 107.67 675.844 107.874C676.192 108.066 676.474 108.33 676.69 108.666C676.906 108.99 677.014 109.416 677.014 109.944C677.014 110.784 676.72 111.45 676.132 111.942C675.544 112.434 674.746 112.68 673.738 112.68Z" fill="#262626"/>
</g>
<defs>
<filter id="filter0_d_57_328" x="0" y="0.5" width="778" height="154" filterUnits="userSpaceOnUse" color-interpolation-filters="sRGB">
<feFlood flood-opacity="0" result="BackgroundImageFix"/>
<feColorMatrix in="SourceAlpha" type="matrix" values="0 0 0 0 0 0 0 0 0 0 0 0 0 0 0 0 0 0 127 0" result="hardAlpha"/>
<feMorphology radius="1" operator="dilate" in="SourceAlpha" result="effect1_dropShadow_57_328"/>
<feOffset dx="8" dy="8"/>
<feComposite in2="hardAlpha" operator="out"/>
<feColorMatrix type="matrix" values="0 0 0 0 1 0 0 0 0 0.745098 0 0 0 0 0.6 0 0 0 1 0"/>
<feBlend mode="normal" in2="BackgroundImageFix" result="effect1_dropShadow_57_328"/>
<feBlend mode="normal" in="SourceGraphic" in2="effect1_dropShadow_57_328" result="shape"/>
</filter>
</defs>
</svg>
