<svg width="1819" height="58" viewBox="0 0 1819 58" fill="none" xmlns="http://www.w3.org/2000/svg">
<g clip-path="url(#clip0_2_2)">
<mask id="mask0_2_2" style="mask-type:luminance" maskUnits="userSpaceOnUse" x="0" y="0" width="1819" height="58">
<path d="M1811 0H8C3.58172 0 0 3.58172 0 8V50C0 54.4183 3.58172 58 8 58H1811C1815.42 58 1819 54.4183 1819 50V8C1819 3.58172 1815.42 0 1811 0Z" fill="white"/>
</mask>
<g mask="url(#mask0_2_2)">
<path d="M1811 0H8C3.58172 0 0 3.58172 0 8V50C0 54.4183 3.58172 58 8 58H1811C1815.42 58 1819 54.4183 1819 50V8C1819 3.58172 1815.42 0 1811 0Z" fill="#FFDECC"/>
<g opacity="0.5">
<path d="M47 93V37H-9V93H47Z" fill="white"/>
<path d="M47 93V37H19L19 93H47Z" fill="white"/>
<path d="M-9 65C-9 80.464 3.53603 93 19 93V37C3.53602 37 -9 49.536 -9 65Z" fill="white"/>
<path d="M-9 37L-9 -19L47 -19L47 37L-9 37Z" fill="#FF9E66"/>
<path d="M103 93V37H47V93H103Z" fill="white"/>
<path d="M47 37L47 -19L103 -19L103 37L47 37Z" fill="white"/>
<path d="M47 37C54.354 37 61.636 35.5515 68.4303 32.7373C75.2245 29.923 81.3979 25.7981 86.598 20.598C91.7981 15.3979 95.923 9.22451 98.7373 2.43027C101.552 -4.36396 103 -11.646 103 -19H47V37Z" fill="#FF9E66"/>
<path d="M159 93V37H103V93H159Z" fill="white"/>
<path d="M159 93V37H131V93H159Z" fill="#FFBE99"/>
<path d="M103 65C103 80.464 115.536 93 131 93V37C115.536 37 103 49.536 103 65Z" fill="#FFBE99"/>
<path d="M103 37L103 -19L159 -19L159 37L103 37Z" fill="white"/>
<path d="M159 37C151.646 37 144.364 35.5515 137.57 32.7373C130.775 29.923 124.602 25.7981 119.402 20.598C114.202 15.3979 110.077 9.22451 107.263 2.43027C104.448 -4.36396 103 -11.646 103 -19H159V37Z" fill="#FF9E66"/>
<path d="M215 93V37H159V93H215Z" fill="url(#paint0_linear_2_2)"/>
<path d="M159 37L159 -19L215 -19L215 37L159 37Z" fill="url(#paint1_linear_2_2)"/>
</g>
<g opacity="0.5">
<path d="M1763 93L1763 37L1819 37L1819 93L1763 93Z" fill="white"/>
<path d="M1763 93L1763 37L1791 37L1791 93L1763 93Z" fill="white"/>
<path d="M1819 65C1819 80.464 1806.46 93 1791 93V37C1806.46 37 1819 49.536 1819 65Z" fill="white"/>
<path d="M1819 37V-19L1763 -19V37H1819Z" fill="#FF9E66"/>
<path d="M1707 93L1707 37L1763 37L1763 93L1707 93Z" fill="white"/>
<path d="M1763 37V-19L1707 -19V37H1763Z" fill="white"/>
<path d="M1763 37C1755.65 37 1748.36 35.5515 1741.57 32.7373C1734.78 29.923 1728.6 25.7981 1723.4 20.598C1718.2 15.3979 1714.08 9.22451 1711.26 2.43027C1708.45 -4.36396 1707 -11.646 1707 -19H1763V37Z" fill="#FF9E66"/>
<path d="M1651 93L1651 37L1707 37L1707 93L1651 93Z" fill="white"/>
<path d="M1651 93L1651 37L1679 37L1679 93L1651 93Z" fill="#FFBE99"/>
<path d="M1707 65C1707 80.464 1694.46 93 1679 93V37C1694.46 37 1707 49.536 1707 65Z" fill="#FFBE99"/>
<path d="M1707 37V-19L1651 -19V37H1707Z" fill="white"/>
<path d="M1651 37C1658.35 37 1665.64 35.5515 1672.43 32.7373C1679.22 29.923 1685.4 25.7981 1690.6 20.598C1695.8 15.3979 1699.92 9.22451 1702.74 2.43027C1705.55 -4.36396 1707 -11.646 1707 -19H1651V37Z" fill="#FF9E66"/>
<path d="M1595 93L1595 37L1651 37L1651 93L1595 93Z" fill="url(#paint2_linear_2_2)"/>
<path d="M1651 37V-19L1595 -19V37H1651Z" fill="url(#paint3_linear_2_2)"/>
</g>
<g opacity="0.9">
<path d="M1238.52 29.7283C1238.61 29.7382 1238.7 29.7481 1238.79 29.7614C1238.71 29.7481 1238.61 29.7382 1238.52 29.7283Z" fill="#262626"/>
<path d="M1244.24 31.5757L1243.74 31.3075C1243.73 31.3009 1243.71 31.291 1243.7 31.2843C1243.65 31.2579 1243.59 31.2314 1243.54 31.2049C1243.57 31.2214 1243.61 31.238 1243.65 31.2546C1243.57 31.2115 1243.49 31.1718 1243.41 31.1288L1243.06 30.9698C1243.09 30.9831 1243.12 30.9996 1243.15 31.0129C1242.72 30.8143 1242.28 30.6355 1241.83 30.4766C1239.91 30.0231 1237.93 29.8344 1234.51 29.7781C1240.84 30.0893 1243.01 30.993 1243.74 31.3042C1243.91 31.3903 1244.08 31.4797 1244.24 31.5757Z" fill="#262626"/>
<path d="M1239.21 29.5761C1238.96 29.5165 1238.71 29.4569 1238.5 29.4105L1238.37 29.384C1237.64 29.2682 1236.19 29.4966 1234.51 29.7846C1234.66 29.7647 1234.8 29.7482 1234.95 29.7316C1237.73 29.4138 1238.53 29.4668 1239.21 29.5794V29.5761Z" fill="#262626"/>
<path d="M1237.16 29.1787C1236.94 29.1489 1236.67 29.1191 1236.46 29.0959H1236.45C1236.41 29.1059 1236.4 29.1092 1234.51 29.7812C1236.71 29.1986 1236.92 29.1953 1237.22 29.1886C1237.2 29.1886 1237.18 29.1853 1237.16 29.182V29.1787Z" fill="#262626"/>
<path d="M1235.51 29.053C1235.48 29.043 1235.44 29.0298 1235.41 29.0199C1235.41 29.0199 1235.41 29.0199 1235.4 29.0199C1235.2 29.0099 1235.07 29.0066 1235.06 29.0066C1234.94 29.0066 1234.8 29 1234.68 29C1234.91 29.0099 1234.91 29.0165 1235.02 29.1523C1234.98 29.3112 1234.81 29.5208 1234.52 29.7813C1235.45 29.2648 1235.48 29.1655 1235.51 29.053Z" fill="#262626"/>
<path d="M1216.05 56.0433C1219.68 64.6109 1228.77 67.8915 1231.98 68.4312C1232 68.4312 1232.01 68.4345 1232.03 68.4378C1232.2 68.4576 1232.41 68.4808 1232.57 68.4974L1232.91 68.5272H1232.93C1231.03 68.3517 1218.01 64.5082 1215.08 52.6865C1215.11 52.862 1215.14 53.0341 1215.17 53.193C1215.39 54.0173 1215.73 55.0966 1216.01 55.9176C1216.03 55.9606 1216.04 56.0003 1216.05 56.0433Z" fill="#262626"/>
<path d="M1233.96 29.1522C1234.41 29.321 1234.43 29.4203 1234.51 29.7812C1234.84 29.0429 1234.16 29.0297 1233.56 29.0198C1233.35 29.0297 1233.06 29.0496 1232.86 29.0661L1232.66 29.0827C1232.96 29.0628 1233.61 29.0198 1233.96 29.1522Z" fill="#262626"/>
<path d="M1234.07 68.5868C1234.14 68.5868 1234.22 68.5901 1234.29 68.5901H1234.33C1234.33 68.5901 1234.35 68.5901 1234.36 68.5901C1234.45 68.5901 1234.53 68.5901 1234.62 68.5901C1234.69 68.5901 1234.76 68.5901 1234.83 68.5901C1234.83 68.5901 1234.83 68.5901 1234.84 68.5901C1233.33 68.5637 1211.83 60.4133 1215.3 43.8542C1215.3 43.8542 1215.3 43.8542 1215.3 43.8576C1215.18 44.3243 1215.07 44.9533 1214.97 45.4234C1214.87 46.0259 1214.79 46.837 1214.73 47.4428C1214.37 62.2969 1232.1 68.3981 1234.07 68.5868Z" fill="#262626"/>
<path d="M1230.83 29.3443C1230.79 29.351 1230.74 29.3609 1230.7 29.3675C1233.12 28.9537 1234.13 29.5496 1234.52 29.7813C1233.83 29.0265 1232.64 29.0398 1230.83 29.3443Z" fill="#262626"/>
<path d="M1217.24 39.0671C1208.5 55.9108 1232.97 67.8021 1235.9 68.5403C1235.92 68.5403 1235.94 68.5403 1235.96 68.537L1236.09 68.5271C1236.11 68.5271 1236.13 68.5237 1236.15 68.5204C1236.3 68.5072 1236.48 68.4873 1236.63 68.4741C1236.65 68.4741 1236.67 68.4708 1236.69 68.4675C1233.22 65.8323 1229 64.3956 1225.66 61.5618C1224.03 60.1747 1220.2 56.9271 1217.96 52.5838C1213.48 43.8938 1217.47 38.352 1219.42 35.9685C1219.35 36.048 1219.29 36.1274 1219.22 36.2035L1218.89 36.5975C1218.37 37.3092 1217.72 38.2858 1217.25 39.0373C1217.25 39.0472 1217.24 39.0572 1217.24 39.0671Z" fill="#262626"/>
<path d="M1229.93 29.5329C1229.93 29.5329 1229.96 29.5263 1229.97 29.523C1229.94 29.5296 1229.9 29.5362 1229.88 29.5428C1229.66 29.5925 1229.37 29.6686 1229.16 29.7282C1228.71 29.8507 1228.13 30.0328 1227.7 30.195C1227.43 30.2943 1227.08 30.4267 1226.82 30.536C1226.51 30.6684 1226.11 30.8604 1225.8 31.0028C1225.48 31.1484 1225.08 31.3636 1224.78 31.5391C1224.43 31.7443 1223.99 32.0125 1223.61 32.2607C1219.65 34.9819 1216.53 39.3485 1216.96 44.2711C1217.98 55.8843 1231.13 63.8493 1236.08 66.8486C1237.23 67.5416 1237.83 68.0227 1237.9 68.292C1237.9 68.292 1237.92 68.2887 1237.93 68.2854C1238.2 68.2357 1238.54 68.1629 1238.81 68.1066C1238.82 68.1066 1238.83 68.1033 1238.84 68.1C1238.94 68.0669 1239.01 67.9278 1239.08 67.8484C1238.85 67.4147 1238.41 67.1035 1236.03 65.5443C1229.91 61.532 1223.74 56.9172 1220.14 50.379C1212.02 35.6176 1227.77 27.9803 1234.52 29.7779C1233.21 29.2714 1231.62 29.2151 1229.94 29.5296L1229.93 29.5329Z" fill="#262626"/>
<path d="M1236.78 63.8957C1240.51 66.5308 1241.39 67.1565 1240.21 67.7392C1240.23 67.7359 1240.24 67.7325 1240.25 67.7292C1240.43 67.673 1240.64 67.6034 1240.84 67.5372C1240.98 67.4909 1241.12 67.4412 1241.25 67.3916C1242.92 66.6169 1241.47 65.5443 1237.99 62.9853C1234.15 60.1549 1229.36 56.6325 1225.3 51.4814C1213.32 36.2731 1226.11 28.7451 1234.51 29.7812C1224.96 27.7122 1204.42 41.0335 1236.78 63.8957Z" fill="#262626"/>
<path d="M1238.97 60.9361C1243.32 64.2697 1244.95 65.5178 1242.79 66.7625C1242.8 66.7559 1242.82 66.746 1242.84 66.7394C1243.2 66.5672 1243.65 66.3288 1244 66.1534C1245.68 65.1702 1245.01 64.0281 1244.03 62.9422C1239.94 58.397 1234.51 55.3844 1230.32 50.9517C1216.85 36.6835 1225.89 29.5859 1234.51 29.7845C1225.72 28.9834 1210.02 38.7426 1238.97 60.9394V60.9361Z" fill="#262626"/>
<path d="M1242.33 58.1786C1246.47 61.4957 1247.95 63.2801 1245.74 65.0743C1246.11 64.8095 1246.59 64.4321 1246.97 64.1441C1247.16 63.9885 1247.36 63.8197 1247.55 63.6508C1249.27 62.0783 1248.3 61.2276 1236.74 51.0445C1219.98 36.2864 1227.54 31.0757 1233 29.9866C1228.05 30.9102 1214.23 35.6674 1242.33 58.1786Z" fill="#262626"/>
<path d="M1234.29 29.7979C1233.89 29.8343 1233.45 29.8972 1232.99 29.9866C1233.58 29.8773 1234.03 29.821 1234.29 29.7979Z" fill="#262626"/>
<path d="M1234.51 29.7812C1234.51 29.7812 1234.42 29.7879 1234.29 29.7978C1234.37 29.7912 1234.44 29.7846 1234.51 29.7812Z" fill="#262626"/>
<path d="M1241.56 51.6835C1248.43 57.212 1251.01 59.7412 1248.77 62.4889C1248.79 62.4723 1248.8 62.4591 1248.82 62.4425C1249.17 62.0651 1249.59 61.5653 1249.92 61.1845C1249.93 61.1746 1249.93 61.168 1249.94 61.1581C1251.9 58.5957 1250.03 55.8977 1241.96 49.631C1220.92 33.2838 1232.07 30.2316 1234.52 29.7847C1232.73 30.0098 1217.77 32.5423 1241.56 51.6835Z" fill="#262626"/>
<path d="M1242.98 47.2605C1250.75 53.0671 1252.89 56.0366 1251.44 59.0061C1251.5 58.9068 1251.55 58.8108 1251.61 58.7148L1251.66 58.6221C1251.7 58.5526 1251.74 58.4897 1251.78 58.4268L1252.22 57.5727C1252.27 57.4634 1252.32 57.3542 1252.38 57.2483C1254.11 53.2691 1247.54 48.4821 1243.17 45.3074C1228.96 34.9621 1230.62 31.1584 1234.51 29.7878C1231.19 30.6552 1225.35 34.0981 1242.98 47.2672V47.2605Z" fill="#262626"/>
<path d="M1243.36 42.7517C1250.14 47.532 1254.21 50.7299 1253.36 54.7191C1253.4 54.5833 1253.45 54.4476 1253.48 54.3152C1253.62 53.8186 1253.75 53.2592 1253.86 52.8122C1254.45 48.8364 1250.34 45.804 1243.6 41.1925C1239.14 38.1435 1230.85 32.4694 1234.51 29.7812C1228.77 32.4727 1239.75 40.2093 1243.36 42.7517Z" fill="#262626"/>
<path d="M1243.86 39.2361C1251.5 44.1985 1254.1 46.4496 1254.24 49.866C1254.24 49.7998 1254.25 49.7303 1254.25 49.6641L1254.28 48.8298L1254.26 48.0221C1254.25 47.9294 1254.25 47.84 1254.24 47.7473C1253.95 44.1621 1249.17 41.2058 1243.13 37.4716C1238.88 34.8464 1234.06 31.867 1234.52 29.7847C1232.53 31.8901 1239.35 36.3129 1243.86 39.2394V39.2361Z" fill="#262626"/>
<path d="M1243.36 36.0679C1250.4 40.067 1253.06 42.0103 1253.9 44.94C1253.79 44.4335 1253.62 43.7913 1253.48 43.2484C1253.45 43.1358 1253.41 43.0266 1253.38 42.914C1252.24 39.9346 1248.4 37.796 1241.73 34.2935C1237.02 31.814 1235.47 30.844 1234.51 29.7847C1235.06 31.3605 1238.54 33.3368 1243.36 36.0713V36.0679Z" fill="#262626"/>
<path d="M1252.37 40.3284C1252.34 40.2688 1252.32 40.2093 1252.29 40.1497L1251.89 39.3585L1251.62 38.8851C1251.57 38.799 1251.52 38.7129 1251.47 38.6268C1250.56 37.2166 1248.92 36.1672 1246.57 34.9357C1242.68 32.903 1238.52 31.5358 1234.52 29.7812C1235.77 30.5758 1238.06 31.6285 1240.96 32.9626C1248.67 36.5015 1251.04 38.031 1252.38 40.3284H1252.37Z" fill="#262626"/>
<path d="M1249.97 36.4783C1249.93 36.432 1249.9 36.3923 1249.86 36.3426C1249.84 36.3128 1249.82 36.2863 1249.79 36.2565C1249.76 36.2201 1249.73 36.1837 1249.7 36.1473C1249.41 35.8096 1249.08 35.4422 1248.82 35.1475C1247.1 33.383 1242.28 31.5788 1234.51 29.7812C1246.3 33.3135 1248.58 34.9688 1249.97 36.4783Z" fill="#262626"/>
<path d="M1246.74 33.2639C1246.45 33.0421 1246.14 32.8103 1245.87 32.6117C1245.81 32.572 1245.75 32.5356 1245.7 32.4958C1243.83 31.3173 1240.07 30.4036 1234.51 29.7812C1237.97 30.2944 1244.15 31.453 1246.98 33.4625C1246.9 33.393 1246.82 33.3268 1246.74 33.2639Z" fill="#262626"/>
<path d="M1238.9 29.778C1239.36 29.8409 1239.81 29.9236 1240.26 30.0263C1241.05 30.1587 1241.15 30.1885 1241.75 30.3838C1241.73 30.3772 1241.71 30.3673 1241.7 30.3639C1241.4 30.2448 1240.99 30.1057 1240.68 29.9965H1240.67C1239.95 29.7614 1239.1 29.7316 1238.11 29.6919C1238.16 29.6952 1238.2 29.7018 1238.25 29.7052C1237.74 29.6588 1237.23 29.6323 1236.71 29.6323C1235.91 29.672 1235.81 29.6787 1234.51 29.7846C1236.57 29.6985 1237.49 29.7151 1238.9 29.7813V29.778Z" fill="#262626"/>
</g>
<g opacity="0.9">
<path d="M545.253 42.8808C545.338 42.911 545.429 42.9413 545.519 42.9776C546.161 43.1956 546.961 43.4439 547.572 43.6316C548.208 43.8132 549.062 44.013 549.703 44.1644C541.354 42.1239 534.227 37.5525 528.53 30.5652L530.134 32.5451C530.334 32.7691 530.509 32.969 530.679 33.1506C531.272 33.7682 531.975 34.4827 532.689 35.1729C533.131 35.5786 533.682 36.063 534.445 36.7411C534.839 37.056 535.299 37.4072 535.771 37.7583C539.822 40.7434 542.589 41.8454 545.259 42.8868L545.253 42.8808Z" fill="#262626"/>
<path d="M523.764 22.0522C530.4 37.7222 547.021 43.7225 552.894 44.7095C552.924 44.7095 552.949 44.7155 552.979 44.7216C553.288 44.7579 553.675 44.8003 553.978 44.8306L554.596 44.8851C554.596 44.8851 554.62 44.8851 554.626 44.8851C551.162 44.5642 527.343 37.5345 521.978 15.9126C522.039 16.2335 522.093 16.5484 522.154 16.839C522.553 18.3466 523.165 20.3205 523.679 21.8221C523.71 21.9009 523.74 21.9735 523.764 22.0522Z" fill="#262626"/>
<path d="M556.708 44.9941C556.848 44.9941 556.981 45.0002 557.12 45.0002H557.181C557.181 45.0002 557.229 45.0002 557.247 45.0002C557.405 45.0002 557.556 45.0002 557.714 45.0002C557.847 45.0002 557.98 45.0002 558.095 45.0002C558.101 45.0002 558.107 45.0002 558.113 45.0002C555.364 44.9517 516.032 30.0447 522.39 -0.241699C522.39 -0.241699 522.39 -0.241712 522.39 -0.235657C522.172 0.618078 521.96 1.76851 521.778 2.6283C521.602 3.73028 521.457 5.21372 521.336 6.32176C520.688 33.4899 553.112 44.649 556.708 44.9941Z" fill="#262626"/>
<path d="M525.926 -8.99723C509.947 21.8099 554.705 43.5589 560.057 44.9092C560.094 44.9092 560.13 44.9092 560.166 44.9031L560.402 44.885C560.439 44.885 560.475 44.8789 560.517 44.8728C560.79 44.8486 561.117 44.8123 561.395 44.7881C561.432 44.7881 561.468 44.782 561.498 44.776C555.159 39.9563 547.445 37.3285 541.336 32.1455C538.345 29.6085 531.339 23.6687 527.246 15.7248C519.054 -0.169238 526.344 -10.3051 529.922 -14.6646C529.795 -14.5192 529.674 -14.3739 529.553 -14.2347L528.947 -13.5141C528.003 -12.2123 526.81 -10.4262 525.956 -9.05172C525.944 -9.03355 525.938 -9.01539 525.926 -8.99723Z" fill="#262626"/>
<path d="M549.146 -26.4353C549.146 -26.4353 549.189 -26.4474 549.213 -26.4534C549.158 -26.4413 549.092 -26.4292 549.043 -26.4171C548.644 -26.3263 548.123 -26.187 547.729 -26.078C546.918 -25.854 545.846 -25.521 545.059 -25.2243C544.575 -25.0427 543.933 -24.8005 543.461 -24.6007C542.892 -24.3585 542.147 -24.0073 541.584 -23.7469C541.008 -23.4805 540.264 -23.0869 539.719 -22.766C539.077 -22.3906 538.284 -21.9002 537.581 -21.4461C530.346 -16.469 524.636 -8.48263 525.423 0.520931C527.288 21.7614 551.344 36.3293 560.396 41.815C562.487 43.0825 563.593 43.9625 563.714 44.4549C563.714 44.4549 563.757 44.4489 563.775 44.4428C564.271 44.352 564.895 44.2188 565.391 44.1159C565.41 44.1159 565.428 44.1098 565.446 44.1038C565.621 44.0432 565.749 43.7889 565.87 43.6436C565.458 42.8504 564.653 42.2813 560.299 39.4294C549.098 32.0909 537.824 23.6505 531.242 11.6921C516.389 -15.3065 545.192 -29.275 557.532 -25.9872C555.14 -26.9136 552.228 -27.0166 549.152 -26.4413L549.146 -26.4353Z" fill="#262626"/>
<path d="M561.667 36.4142C568.485 41.2338 570.108 42.3782 567.952 43.4439C567.977 43.4378 568.001 43.4318 568.019 43.4257C568.352 43.3228 568.727 43.1956 569.097 43.0745C569.351 42.9898 569.599 42.8989 569.848 42.8081C572.899 41.3913 570.241 39.4295 563.883 34.7491C556.854 29.5722 548.098 23.1298 540.675 13.7085C518.757 -14.1075 542.153 -27.8763 557.52 -25.9811C540.058 -29.7654 502.481 -5.40063 561.661 36.4142H561.667Z" fill="#262626"/>
<path d="M565.676 31.001C573.626 37.0983 576.605 39.3809 572.657 41.6575C572.687 41.6454 572.718 41.6273 572.748 41.6152C573.408 41.3003 574.231 40.8644 574.867 40.5435C577.943 38.7452 576.714 36.6562 574.928 34.6703C567.45 26.3569 557.52 20.847 549.86 12.7396C525.211 -13.3568 541.747 -26.3385 557.526 -25.9752C541.444 -27.4404 512.732 -9.59071 565.676 31.0071V31.001Z" fill="#262626"/>
<path d="M571.821 25.9577C579.396 32.0246 582.097 35.2882 578.052 38.57C578.742 38.0856 579.62 37.3953 580.31 36.8685C580.655 36.5839 581.019 36.2752 581.364 35.9664C584.506 33.0903 582.744 31.5342 561.601 12.9095C530.951 -14.0831 544.762 -23.6134 554.753 -25.6055C545.695 -23.9162 520.434 -15.2153 571.821 25.9577Z" fill="#262626"/>
<path d="M570.411 14.078C582.974 24.1896 587.691 28.8155 583.604 33.841C583.634 33.8108 583.659 33.7866 583.683 33.7563C584.325 33.066 585.1 32.1518 585.705 31.4554C585.717 31.4373 585.729 31.4252 585.741 31.407C589.32 26.7205 585.899 21.7858 571.149 10.324C532.665 -19.5749 553.051 -25.1574 557.532 -25.9749C554.268 -25.5631 526.906 -20.9312 570.417 14.078H570.411Z" fill="#262626"/>
<path d="M573.008 5.98854C587.225 16.6087 591.137 22.04 588.478 27.4712C588.587 27.2895 588.69 27.1139 588.793 26.9383L588.89 26.7688C588.963 26.6416 589.029 26.5266 589.096 26.4116L589.907 24.8494C590.004 24.6496 590.101 24.4498 590.198 24.256C593.371 16.9781 581.346 8.22278 573.366 2.41618C547.36 -16.5053 550.399 -23.4623 557.526 -25.969C551.441 -24.3826 540.76 -18.0856 573.008 6.00066V5.98854Z" fill="#262626"/>
<path d="M573.698 -2.25829C586.111 6.48492 593.546 12.3339 592.002 19.63C592.075 19.3818 592.154 19.1335 592.22 18.8913C592.468 17.9831 592.717 16.9598 592.916 16.1424C593.982 8.87054 586.474 3.3243 574.14 -5.11012C565.991 -10.6866 550.823 -21.0647 557.526 -25.9812C547.015 -21.0586 567.099 -6.90841 573.698 -2.25829Z" fill="#262626"/>
<path d="M574.613 -8.68826C588.6 0.387961 593.353 4.50527 593.607 10.7539C593.613 10.6328 593.625 10.5056 593.631 10.3845L593.674 8.8587L593.638 7.38132C593.631 7.21178 593.625 7.04829 593.613 6.87875C593.074 0.321351 584.337 -5.08563 573.287 -11.9155C565.513 -16.717 556.703 -22.1664 557.532 -25.9749C553.893 -22.124 566.366 -14.0347 574.619 -8.68221L574.613 -8.68826Z" fill="#262626"/>
<path d="M573.704 -14.4828C586.589 -7.1685 591.439 -3.6143 592.983 1.74426C592.789 0.817862 592.474 -0.35679 592.214 -1.34978C592.154 -1.55565 592.093 -1.75545 592.032 -1.96132C589.938 -7.41069 582.92 -11.3221 570.732 -17.7281C562.115 -22.2632 559.276 -24.0373 557.526 -25.9749C558.531 -23.0927 564.895 -19.478 573.704 -14.4767V-14.4828Z" fill="#262626"/>
</g>
</g>
<path d="M1811 1H8C4.13401 1 1 4.13401 1 8V50C1 53.866 4.13401 57 8 57H1811C1814.87 57 1818 53.866 1818 50V8C1818 4.13401 1814.87 1 1811 1Z" stroke="#262626" stroke-width="2"/>
</g>
<defs>
<linearGradient id="paint0_linear_2_2" x1="215" y1="65" x2="159" y2="65" gradientUnits="userSpaceOnUse">
<stop stop-color="#FFBE99" stop-opacity="0"/>
<stop offset="1" stop-color="#FFBE99"/>
</linearGradient>
<linearGradient id="paint1_linear_2_2" x1="159" y1="9" x2="215" y2="9" gradientUnits="userSpaceOnUse">
<stop stop-color="#FF9E66"/>
<stop offset="1" stop-color="#FF9E66" stop-opacity="0"/>
</linearGradient>
<linearGradient id="paint2_linear_2_2" x1="1595" y1="65" x2="1651" y2="65" gradientUnits="userSpaceOnUse">
<stop stop-color="#FFBE99" stop-opacity="0"/>
<stop offset="1" stop-color="#FFBE99"/>
</linearGradient>
<linearGradient id="paint3_linear_2_2" x1="1651" y1="9" x2="1595" y2="9" gradientUnits="userSpaceOnUse">
<stop stop-color="#FF9E66"/>
<stop offset="1" stop-color="#FF9E66" stop-opacity="0"/>
</linearGradient>
<clipPath id="clip0_2_2">
<rect width="1819" height="58" fill="white"/>
</clipPath>
</defs>
</svg>
